<mxfile host="app.diagrams.net" agent="Mozilla/5.0 (Windows NT 10.0; Win64; x64) AppleWebKit/537.36 (KHTML, like Gecko) Chrome/130.0.0.0 Safari/537.36 Edg/130.0.0.0" version="24.8.4">
  <diagram name="Страница — 1" id="5RWbZgN3iYQJcFMrBtnT">
    <mxGraphModel dx="3332" dy="1654" grid="1" gridSize="10" guides="1" tooltips="1" connect="1" arrows="1" fold="1" page="1" pageScale="1" pageWidth="827" pageHeight="1169" math="0" shadow="0">
      <root>
        <mxCell id="0" />
        <mxCell id="1" parent="0" />
        <mxCell id="7aP_PVD17I1c4v3nvpaB-2" value="" style="swimlane;startSize=0;" parent="1" vertex="1">
          <mxGeometry x="40" width="780" height="840" as="geometry" />
        </mxCell>
        <mxCell id="7aP_PVD17I1c4v3nvpaB-98" value="Администратор" style="rounded=0;whiteSpace=wrap;html=1;" parent="7aP_PVD17I1c4v3nvpaB-2" vertex="1">
          <mxGeometry x="10" y="10" width="120" height="60" as="geometry" />
        </mxCell>
        <mxCell id="7aP_PVD17I1c4v3nvpaB-99" value="Клиент" style="rounded=0;whiteSpace=wrap;html=1;" parent="7aP_PVD17I1c4v3nvpaB-2" vertex="1">
          <mxGeometry x="650" y="10" width="120" height="60" as="geometry" />
        </mxCell>
        <mxCell id="7aP_PVD17I1c4v3nvpaB-3" value="" style="swimlane;startSize=0;" parent="1" vertex="1">
          <mxGeometry x="40" y="80" width="780" height="760" as="geometry" />
        </mxCell>
        <mxCell id="7aP_PVD17I1c4v3nvpaB-25" style="edgeStyle=orthogonalEdgeStyle;rounded=0;orthogonalLoop=1;jettySize=auto;html=1;entryX=0.5;entryY=0;entryDx=0;entryDy=0;" parent="7aP_PVD17I1c4v3nvpaB-3" source="7aP_PVD17I1c4v3nvpaB-6" target="7aP_PVD17I1c4v3nvpaB-24" edge="1">
          <mxGeometry relative="1" as="geometry" />
        </mxCell>
        <mxCell id="7aP_PVD17I1c4v3nvpaB-6" value="" style="ellipse;whiteSpace=wrap;html=1;aspect=fixed;" parent="7aP_PVD17I1c4v3nvpaB-3" vertex="1">
          <mxGeometry x="50" y="20" width="40" height="40" as="geometry" />
        </mxCell>
        <mxCell id="7aP_PVD17I1c4v3nvpaB-21" style="edgeStyle=orthogonalEdgeStyle;rounded=0;orthogonalLoop=1;jettySize=auto;html=1;entryX=0.5;entryY=0;entryDx=0;entryDy=0;" parent="7aP_PVD17I1c4v3nvpaB-3" source="7aP_PVD17I1c4v3nvpaB-8" target="7aP_PVD17I1c4v3nvpaB-16" edge="1">
          <mxGeometry relative="1" as="geometry">
            <mxPoint x="710" y="110" as="targetPoint" />
          </mxGeometry>
        </mxCell>
        <mxCell id="7aP_PVD17I1c4v3nvpaB-8" value="" style="ellipse;whiteSpace=wrap;html=1;aspect=fixed;" parent="7aP_PVD17I1c4v3nvpaB-3" vertex="1">
          <mxGeometry x="690" y="20" width="40" height="40" as="geometry" />
        </mxCell>
        <mxCell id="7aP_PVD17I1c4v3nvpaB-23" value="" style="edgeStyle=orthogonalEdgeStyle;rounded=0;orthogonalLoop=1;jettySize=auto;html=1;" parent="7aP_PVD17I1c4v3nvpaB-3" source="7aP_PVD17I1c4v3nvpaB-16" target="7aP_PVD17I1c4v3nvpaB-17" edge="1">
          <mxGeometry relative="1" as="geometry" />
        </mxCell>
        <mxCell id="7aP_PVD17I1c4v3nvpaB-16" value="Создать заказ" style="rounded=1;whiteSpace=wrap;html=1;" parent="7aP_PVD17I1c4v3nvpaB-3" vertex="1">
          <mxGeometry x="660" y="90" width="100" height="50" as="geometry" />
        </mxCell>
        <mxCell id="7aP_PVD17I1c4v3nvpaB-84" style="edgeStyle=orthogonalEdgeStyle;rounded=0;orthogonalLoop=1;jettySize=auto;html=1;entryX=0.5;entryY=0;entryDx=0;entryDy=0;" parent="7aP_PVD17I1c4v3nvpaB-3" source="7aP_PVD17I1c4v3nvpaB-17" target="7aP_PVD17I1c4v3nvpaB-78" edge="1">
          <mxGeometry relative="1" as="geometry">
            <Array as="points">
              <mxPoint x="710" y="680" />
              <mxPoint x="401" y="680" />
            </Array>
          </mxGeometry>
        </mxCell>
        <mxCell id="7aP_PVD17I1c4v3nvpaB-17" value="Редактировать учетную запись" style="rounded=1;whiteSpace=wrap;html=1;" parent="7aP_PVD17I1c4v3nvpaB-3" vertex="1">
          <mxGeometry x="660" y="170" width="100" height="50" as="geometry" />
        </mxCell>
        <mxCell id="7aP_PVD17I1c4v3nvpaB-32" style="edgeStyle=orthogonalEdgeStyle;rounded=0;orthogonalLoop=1;jettySize=auto;html=1;exitX=1;exitY=0.5;exitDx=0;exitDy=0;entryX=0.5;entryY=0;entryDx=0;entryDy=0;" parent="7aP_PVD17I1c4v3nvpaB-3" source="7aP_PVD17I1c4v3nvpaB-24" target="7aP_PVD17I1c4v3nvpaB-31" edge="1">
          <mxGeometry relative="1" as="geometry" />
        </mxCell>
        <mxCell id="7aP_PVD17I1c4v3nvpaB-48" style="edgeStyle=orthogonalEdgeStyle;rounded=0;orthogonalLoop=1;jettySize=auto;html=1;exitX=0.5;exitY=1;exitDx=0;exitDy=0;entryX=0.5;entryY=0;entryDx=0;entryDy=0;" parent="7aP_PVD17I1c4v3nvpaB-3" source="7aP_PVD17I1c4v3nvpaB-24" target="7aP_PVD17I1c4v3nvpaB-47" edge="1">
          <mxGeometry relative="1" as="geometry" />
        </mxCell>
        <mxCell id="7aP_PVD17I1c4v3nvpaB-24" value="Просмотр продуктов?" style="rhombus;whiteSpace=wrap;html=1;" parent="7aP_PVD17I1c4v3nvpaB-3" vertex="1">
          <mxGeometry x="11.719999999999999" y="90" width="116.56" height="70" as="geometry" />
        </mxCell>
        <mxCell id="7aP_PVD17I1c4v3nvpaB-40" style="edgeStyle=orthogonalEdgeStyle;rounded=0;orthogonalLoop=1;jettySize=auto;html=1;exitX=1;exitY=0.5;exitDx=0;exitDy=0;entryX=0.5;entryY=0;entryDx=0;entryDy=0;" parent="7aP_PVD17I1c4v3nvpaB-3" source="7aP_PVD17I1c4v3nvpaB-31" target="7aP_PVD17I1c4v3nvpaB-39" edge="1">
          <mxGeometry relative="1" as="geometry" />
        </mxCell>
        <mxCell id="7aP_PVD17I1c4v3nvpaB-55" style="edgeStyle=orthogonalEdgeStyle;rounded=0;orthogonalLoop=1;jettySize=auto;html=1;entryX=0.5;entryY=0;entryDx=0;entryDy=0;" parent="7aP_PVD17I1c4v3nvpaB-3" source="7aP_PVD17I1c4v3nvpaB-31" target="7aP_PVD17I1c4v3nvpaB-54" edge="1">
          <mxGeometry relative="1" as="geometry" />
        </mxCell>
        <mxCell id="7aP_PVD17I1c4v3nvpaB-31" value="Просмотр категорий?" style="rhombus;whiteSpace=wrap;html=1;" parent="7aP_PVD17I1c4v3nvpaB-3" vertex="1">
          <mxGeometry x="138.28" y="180" width="113.44" height="70" as="geometry" />
        </mxCell>
        <mxCell id="7aP_PVD17I1c4v3nvpaB-42" style="edgeStyle=orthogonalEdgeStyle;rounded=0;orthogonalLoop=1;jettySize=auto;html=1;entryX=0.5;entryY=0;entryDx=0;entryDy=0;" parent="7aP_PVD17I1c4v3nvpaB-3" source="7aP_PVD17I1c4v3nvpaB-39" target="7aP_PVD17I1c4v3nvpaB-41" edge="1">
          <mxGeometry relative="1" as="geometry" />
        </mxCell>
        <mxCell id="7aP_PVD17I1c4v3nvpaB-61" style="edgeStyle=orthogonalEdgeStyle;rounded=0;orthogonalLoop=1;jettySize=auto;html=1;entryX=0.5;entryY=0;entryDx=0;entryDy=0;" parent="7aP_PVD17I1c4v3nvpaB-3" source="7aP_PVD17I1c4v3nvpaB-39" target="7aP_PVD17I1c4v3nvpaB-60" edge="1">
          <mxGeometry relative="1" as="geometry" />
        </mxCell>
        <mxCell id="7aP_PVD17I1c4v3nvpaB-39" value="Просмотр поставщиков?" style="rhombus;whiteSpace=wrap;html=1;" parent="7aP_PVD17I1c4v3nvpaB-3" vertex="1">
          <mxGeometry x="260" y="260" width="113.44" height="70" as="geometry" />
        </mxCell>
        <mxCell id="7aP_PVD17I1c4v3nvpaB-44" style="edgeStyle=orthogonalEdgeStyle;rounded=0;orthogonalLoop=1;jettySize=auto;html=1;exitX=1;exitY=0.5;exitDx=0;exitDy=0;entryX=0.5;entryY=0;entryDx=0;entryDy=0;" parent="7aP_PVD17I1c4v3nvpaB-3" source="7aP_PVD17I1c4v3nvpaB-41" target="7aP_PVD17I1c4v3nvpaB-43" edge="1">
          <mxGeometry relative="1" as="geometry" />
        </mxCell>
        <mxCell id="7aP_PVD17I1c4v3nvpaB-71" style="edgeStyle=orthogonalEdgeStyle;rounded=0;orthogonalLoop=1;jettySize=auto;html=1;entryX=0.5;entryY=0;entryDx=0;entryDy=0;" parent="7aP_PVD17I1c4v3nvpaB-3" source="7aP_PVD17I1c4v3nvpaB-41" target="7aP_PVD17I1c4v3nvpaB-67" edge="1">
          <mxGeometry relative="1" as="geometry" />
        </mxCell>
        <mxCell id="7aP_PVD17I1c4v3nvpaB-41" value="Просмотр пользователей?" style="rhombus;whiteSpace=wrap;html=1;" parent="7aP_PVD17I1c4v3nvpaB-3" vertex="1">
          <mxGeometry x="380.72" y="340" width="113.44" height="70" as="geometry" />
        </mxCell>
        <mxCell id="7aP_PVD17I1c4v3nvpaB-75" style="edgeStyle=orthogonalEdgeStyle;rounded=0;orthogonalLoop=1;jettySize=auto;html=1;entryX=0.5;entryY=0;entryDx=0;entryDy=0;" parent="7aP_PVD17I1c4v3nvpaB-3" source="7aP_PVD17I1c4v3nvpaB-43" target="7aP_PVD17I1c4v3nvpaB-74" edge="1">
          <mxGeometry relative="1" as="geometry" />
        </mxCell>
        <mxCell id="7aP_PVD17I1c4v3nvpaB-43" value="Просмотр&amp;nbsp;&lt;div&gt;заказов?&lt;/div&gt;" style="rhombus;whiteSpace=wrap;html=1;" parent="7aP_PVD17I1c4v3nvpaB-3" vertex="1">
          <mxGeometry x="510" y="420" width="113.44" height="70" as="geometry" />
        </mxCell>
        <mxCell id="7aP_PVD17I1c4v3nvpaB-51" style="edgeStyle=orthogonalEdgeStyle;rounded=0;orthogonalLoop=1;jettySize=auto;html=1;" parent="7aP_PVD17I1c4v3nvpaB-3" source="7aP_PVD17I1c4v3nvpaB-47" target="7aP_PVD17I1c4v3nvpaB-49" edge="1">
          <mxGeometry relative="1" as="geometry" />
        </mxCell>
        <mxCell id="7aP_PVD17I1c4v3nvpaB-47" value="Добавить товар" style="rounded=1;whiteSpace=wrap;html=1;" parent="7aP_PVD17I1c4v3nvpaB-3" vertex="1">
          <mxGeometry x="20" y="190" width="100" height="50" as="geometry" />
        </mxCell>
        <mxCell id="7aP_PVD17I1c4v3nvpaB-53" style="edgeStyle=orthogonalEdgeStyle;rounded=0;orthogonalLoop=1;jettySize=auto;html=1;entryX=0.5;entryY=0;entryDx=0;entryDy=0;" parent="7aP_PVD17I1c4v3nvpaB-3" source="7aP_PVD17I1c4v3nvpaB-49" target="7aP_PVD17I1c4v3nvpaB-52" edge="1">
          <mxGeometry relative="1" as="geometry" />
        </mxCell>
        <mxCell id="7aP_PVD17I1c4v3nvpaB-49" value="&amp;nbsp;Редактировать&lt;div&gt;товар&lt;/div&gt;" style="rounded=1;whiteSpace=wrap;html=1;" parent="7aP_PVD17I1c4v3nvpaB-3" vertex="1">
          <mxGeometry x="20" y="270" width="100" height="50" as="geometry" />
        </mxCell>
        <mxCell id="7aP_PVD17I1c4v3nvpaB-79" style="edgeStyle=orthogonalEdgeStyle;rounded=0;orthogonalLoop=1;jettySize=auto;html=1;entryX=0.5;entryY=0;entryDx=0;entryDy=0;" parent="7aP_PVD17I1c4v3nvpaB-3" source="7aP_PVD17I1c4v3nvpaB-52" target="7aP_PVD17I1c4v3nvpaB-78" edge="1">
          <mxGeometry relative="1" as="geometry">
            <Array as="points">
              <mxPoint x="70" y="680" />
              <mxPoint x="401" y="680" />
            </Array>
          </mxGeometry>
        </mxCell>
        <mxCell id="7aP_PVD17I1c4v3nvpaB-52" value="Удалить товар" style="rounded=1;whiteSpace=wrap;html=1;" parent="7aP_PVD17I1c4v3nvpaB-3" vertex="1">
          <mxGeometry x="20" y="350" width="100" height="50" as="geometry" />
        </mxCell>
        <mxCell id="7aP_PVD17I1c4v3nvpaB-57" value="" style="edgeStyle=orthogonalEdgeStyle;rounded=0;orthogonalLoop=1;jettySize=auto;html=1;" parent="7aP_PVD17I1c4v3nvpaB-3" source="7aP_PVD17I1c4v3nvpaB-54" target="7aP_PVD17I1c4v3nvpaB-56" edge="1">
          <mxGeometry relative="1" as="geometry" />
        </mxCell>
        <mxCell id="7aP_PVD17I1c4v3nvpaB-54" value="Добавить категорию" style="rounded=1;whiteSpace=wrap;html=1;" parent="7aP_PVD17I1c4v3nvpaB-3" vertex="1">
          <mxGeometry x="145" y="270" width="100" height="50" as="geometry" />
        </mxCell>
        <mxCell id="7aP_PVD17I1c4v3nvpaB-59" style="edgeStyle=orthogonalEdgeStyle;rounded=0;orthogonalLoop=1;jettySize=auto;html=1;entryX=0.5;entryY=0;entryDx=0;entryDy=0;" parent="7aP_PVD17I1c4v3nvpaB-3" source="7aP_PVD17I1c4v3nvpaB-56" target="7aP_PVD17I1c4v3nvpaB-58" edge="1">
          <mxGeometry relative="1" as="geometry" />
        </mxCell>
        <mxCell id="7aP_PVD17I1c4v3nvpaB-56" value="&amp;nbsp;Редактировать&lt;div&gt;категорию&lt;/div&gt;" style="rounded=1;whiteSpace=wrap;html=1;" parent="7aP_PVD17I1c4v3nvpaB-3" vertex="1">
          <mxGeometry x="145" y="350" width="100" height="50" as="geometry" />
        </mxCell>
        <mxCell id="7aP_PVD17I1c4v3nvpaB-80" style="edgeStyle=orthogonalEdgeStyle;rounded=0;orthogonalLoop=1;jettySize=auto;html=1;entryX=0.5;entryY=0;entryDx=0;entryDy=0;" parent="7aP_PVD17I1c4v3nvpaB-3" source="7aP_PVD17I1c4v3nvpaB-58" target="7aP_PVD17I1c4v3nvpaB-78" edge="1">
          <mxGeometry relative="1" as="geometry">
            <Array as="points">
              <mxPoint x="195" y="680" />
              <mxPoint x="401" y="680" />
            </Array>
          </mxGeometry>
        </mxCell>
        <mxCell id="7aP_PVD17I1c4v3nvpaB-58" value="Удалить категорию&amp;nbsp;" style="rounded=1;whiteSpace=wrap;html=1;" parent="7aP_PVD17I1c4v3nvpaB-3" vertex="1">
          <mxGeometry x="145" y="430" width="100" height="50" as="geometry" />
        </mxCell>
        <mxCell id="7aP_PVD17I1c4v3nvpaB-63" style="edgeStyle=orthogonalEdgeStyle;rounded=0;orthogonalLoop=1;jettySize=auto;html=1;entryX=0.5;entryY=0;entryDx=0;entryDy=0;" parent="7aP_PVD17I1c4v3nvpaB-3" source="7aP_PVD17I1c4v3nvpaB-60" target="7aP_PVD17I1c4v3nvpaB-62" edge="1">
          <mxGeometry relative="1" as="geometry" />
        </mxCell>
        <mxCell id="7aP_PVD17I1c4v3nvpaB-60" value="Добавить поставщика" style="rounded=1;whiteSpace=wrap;html=1;" parent="7aP_PVD17I1c4v3nvpaB-3" vertex="1">
          <mxGeometry x="266.72" y="350" width="100" height="50" as="geometry" />
        </mxCell>
        <mxCell id="7aP_PVD17I1c4v3nvpaB-66" style="edgeStyle=orthogonalEdgeStyle;rounded=0;orthogonalLoop=1;jettySize=auto;html=1;entryX=0.5;entryY=0;entryDx=0;entryDy=0;" parent="7aP_PVD17I1c4v3nvpaB-3" source="7aP_PVD17I1c4v3nvpaB-62" target="7aP_PVD17I1c4v3nvpaB-65" edge="1">
          <mxGeometry relative="1" as="geometry" />
        </mxCell>
        <mxCell id="7aP_PVD17I1c4v3nvpaB-62" value="Редактировать&lt;div&gt;поставщика&lt;/div&gt;" style="rounded=1;whiteSpace=wrap;html=1;" parent="7aP_PVD17I1c4v3nvpaB-3" vertex="1">
          <mxGeometry x="266.72" y="430" width="100" height="50" as="geometry" />
        </mxCell>
        <mxCell id="7aP_PVD17I1c4v3nvpaB-81" style="edgeStyle=orthogonalEdgeStyle;rounded=0;orthogonalLoop=1;jettySize=auto;html=1;entryX=0.5;entryY=0;entryDx=0;entryDy=0;" parent="7aP_PVD17I1c4v3nvpaB-3" source="7aP_PVD17I1c4v3nvpaB-65" target="7aP_PVD17I1c4v3nvpaB-78" edge="1">
          <mxGeometry relative="1" as="geometry">
            <Array as="points">
              <mxPoint x="317" y="680" />
              <mxPoint x="401" y="680" />
            </Array>
          </mxGeometry>
        </mxCell>
        <mxCell id="7aP_PVD17I1c4v3nvpaB-65" value="Удалить поставщика" style="rounded=1;whiteSpace=wrap;html=1;" parent="7aP_PVD17I1c4v3nvpaB-3" vertex="1">
          <mxGeometry x="266.72" y="510" width="100" height="50" as="geometry" />
        </mxCell>
        <mxCell id="7aP_PVD17I1c4v3nvpaB-70" style="edgeStyle=orthogonalEdgeStyle;rounded=0;orthogonalLoop=1;jettySize=auto;html=1;entryX=0.5;entryY=0;entryDx=0;entryDy=0;" parent="7aP_PVD17I1c4v3nvpaB-3" source="7aP_PVD17I1c4v3nvpaB-67" target="7aP_PVD17I1c4v3nvpaB-69" edge="1">
          <mxGeometry relative="1" as="geometry" />
        </mxCell>
        <mxCell id="7aP_PVD17I1c4v3nvpaB-67" value="Добавить пользователя" style="rounded=1;whiteSpace=wrap;html=1;" parent="7aP_PVD17I1c4v3nvpaB-3" vertex="1">
          <mxGeometry x="387.44000000000005" y="430" width="100" height="50" as="geometry" />
        </mxCell>
        <mxCell id="7aP_PVD17I1c4v3nvpaB-73" style="edgeStyle=orthogonalEdgeStyle;rounded=0;orthogonalLoop=1;jettySize=auto;html=1;entryX=0.5;entryY=0;entryDx=0;entryDy=0;" parent="7aP_PVD17I1c4v3nvpaB-3" source="7aP_PVD17I1c4v3nvpaB-69" target="7aP_PVD17I1c4v3nvpaB-72" edge="1">
          <mxGeometry relative="1" as="geometry" />
        </mxCell>
        <mxCell id="7aP_PVD17I1c4v3nvpaB-69" value="Редактировать&lt;div&gt;пользователя&lt;/div&gt;" style="rounded=1;whiteSpace=wrap;html=1;" parent="7aP_PVD17I1c4v3nvpaB-3" vertex="1">
          <mxGeometry x="387.44000000000005" y="510" width="100" height="50" as="geometry" />
        </mxCell>
        <mxCell id="7aP_PVD17I1c4v3nvpaB-82" value="" style="edgeStyle=orthogonalEdgeStyle;rounded=0;orthogonalLoop=1;jettySize=auto;html=1;" parent="7aP_PVD17I1c4v3nvpaB-3" source="7aP_PVD17I1c4v3nvpaB-72" target="7aP_PVD17I1c4v3nvpaB-78" edge="1">
          <mxGeometry relative="1" as="geometry">
            <Array as="points">
              <mxPoint x="437" y="680" />
              <mxPoint x="401" y="680" />
            </Array>
          </mxGeometry>
        </mxCell>
        <mxCell id="7aP_PVD17I1c4v3nvpaB-72" value="Удалить пользователя" style="rounded=1;whiteSpace=wrap;html=1;" parent="7aP_PVD17I1c4v3nvpaB-3" vertex="1">
          <mxGeometry x="387.44000000000005" y="590" width="100" height="50" as="geometry" />
        </mxCell>
        <mxCell id="7aP_PVD17I1c4v3nvpaB-77" style="edgeStyle=orthogonalEdgeStyle;rounded=0;orthogonalLoop=1;jettySize=auto;html=1;" parent="7aP_PVD17I1c4v3nvpaB-3" source="7aP_PVD17I1c4v3nvpaB-74" target="7aP_PVD17I1c4v3nvpaB-76" edge="1">
          <mxGeometry relative="1" as="geometry" />
        </mxCell>
        <mxCell id="7aP_PVD17I1c4v3nvpaB-74" value="Редактировать заказ" style="rounded=1;whiteSpace=wrap;html=1;" parent="7aP_PVD17I1c4v3nvpaB-3" vertex="1">
          <mxGeometry x="516.72" y="510" width="100" height="50" as="geometry" />
        </mxCell>
        <mxCell id="7aP_PVD17I1c4v3nvpaB-83" style="edgeStyle=orthogonalEdgeStyle;rounded=0;orthogonalLoop=1;jettySize=auto;html=1;entryX=0.5;entryY=0;entryDx=0;entryDy=0;" parent="7aP_PVD17I1c4v3nvpaB-3" source="7aP_PVD17I1c4v3nvpaB-76" target="7aP_PVD17I1c4v3nvpaB-78" edge="1">
          <mxGeometry relative="1" as="geometry">
            <Array as="points">
              <mxPoint x="567" y="680" />
              <mxPoint x="401" y="680" />
            </Array>
          </mxGeometry>
        </mxCell>
        <mxCell id="7aP_PVD17I1c4v3nvpaB-76" value="Удалить заказ" style="rounded=1;whiteSpace=wrap;html=1;" parent="7aP_PVD17I1c4v3nvpaB-3" vertex="1">
          <mxGeometry x="516.72" y="590" width="100" height="50" as="geometry" />
        </mxCell>
        <mxCell id="7aP_PVD17I1c4v3nvpaB-78" value="" style="ellipse;whiteSpace=wrap;html=1;aspect=fixed;" parent="7aP_PVD17I1c4v3nvpaB-3" vertex="1">
          <mxGeometry x="380.72" y="710" width="40" height="40" as="geometry" />
        </mxCell>
        <mxCell id="7aP_PVD17I1c4v3nvpaB-85" value="Начало" style="text;html=1;align=center;verticalAlign=middle;whiteSpace=wrap;rounded=0;" parent="7aP_PVD17I1c4v3nvpaB-3" vertex="1">
          <mxGeometry x="100" y="30" width="60" height="30" as="geometry" />
        </mxCell>
        <mxCell id="7aP_PVD17I1c4v3nvpaB-86" value="Начало" style="text;html=1;align=center;verticalAlign=middle;whiteSpace=wrap;rounded=0;" parent="7aP_PVD17I1c4v3nvpaB-3" vertex="1">
          <mxGeometry x="616.72" y="30" width="60" height="30" as="geometry" />
        </mxCell>
        <mxCell id="7aP_PVD17I1c4v3nvpaB-87" value="Конец" style="text;html=1;align=center;verticalAlign=middle;whiteSpace=wrap;rounded=0;" parent="7aP_PVD17I1c4v3nvpaB-3" vertex="1">
          <mxGeometry x="434.16" y="715" width="60" height="30" as="geometry" />
        </mxCell>
        <mxCell id="7aP_PVD17I1c4v3nvpaB-88" value="Нет" style="text;html=1;align=center;verticalAlign=middle;whiteSpace=wrap;rounded=0;" parent="7aP_PVD17I1c4v3nvpaB-3" vertex="1">
          <mxGeometry x="128.28" y="100" width="60" height="30" as="geometry" />
        </mxCell>
        <mxCell id="7aP_PVD17I1c4v3nvpaB-89" value="Нет" style="text;html=1;align=center;verticalAlign=middle;whiteSpace=wrap;rounded=0;" parent="7aP_PVD17I1c4v3nvpaB-3" vertex="1">
          <mxGeometry x="251.72" y="190" width="60" height="30" as="geometry" />
        </mxCell>
        <mxCell id="7aP_PVD17I1c4v3nvpaB-90" value="Нет" style="text;html=1;align=center;verticalAlign=middle;whiteSpace=wrap;rounded=0;" parent="7aP_PVD17I1c4v3nvpaB-3" vertex="1">
          <mxGeometry x="373" y="270" width="60" height="30" as="geometry" />
        </mxCell>
        <mxCell id="7aP_PVD17I1c4v3nvpaB-91" value="Нет" style="text;html=1;align=center;verticalAlign=middle;whiteSpace=wrap;rounded=0;" parent="7aP_PVD17I1c4v3nvpaB-3" vertex="1">
          <mxGeometry x="500" y="350" width="60" height="30" as="geometry" />
        </mxCell>
        <mxCell id="7aP_PVD17I1c4v3nvpaB-92" value="Да" style="text;html=1;align=center;verticalAlign=middle;whiteSpace=wrap;rounded=0;" parent="7aP_PVD17I1c4v3nvpaB-3" vertex="1">
          <mxGeometry x="68.28" y="150" width="60" height="30" as="geometry" />
        </mxCell>
        <mxCell id="7aP_PVD17I1c4v3nvpaB-94" value="Да" style="text;html=1;align=center;verticalAlign=middle;whiteSpace=wrap;rounded=0;" parent="7aP_PVD17I1c4v3nvpaB-3" vertex="1">
          <mxGeometry x="220" y="230" width="60" height="30" as="geometry" />
        </mxCell>
        <mxCell id="7aP_PVD17I1c4v3nvpaB-95" value="Да" style="text;html=1;align=center;verticalAlign=middle;whiteSpace=wrap;rounded=0;" parent="7aP_PVD17I1c4v3nvpaB-3" vertex="1">
          <mxGeometry x="350" y="310" width="60" height="30" as="geometry" />
        </mxCell>
        <mxCell id="7aP_PVD17I1c4v3nvpaB-96" value="Да" style="text;html=1;align=center;verticalAlign=middle;whiteSpace=wrap;rounded=0;" parent="7aP_PVD17I1c4v3nvpaB-3" vertex="1">
          <mxGeometry x="470" y="390" width="60" height="30" as="geometry" />
        </mxCell>
        <mxCell id="7aP_PVD17I1c4v3nvpaB-97" value="Да" style="text;html=1;align=center;verticalAlign=middle;whiteSpace=wrap;rounded=0;" parent="7aP_PVD17I1c4v3nvpaB-3" vertex="1">
          <mxGeometry x="600" y="470" width="60" height="30" as="geometry" />
        </mxCell>
        <mxCell id="7aP_PVD17I1c4v3nvpaB-93" value="Нет" style="text;html=1;align=center;verticalAlign=middle;whiteSpace=wrap;rounded=0;" parent="1" vertex="1">
          <mxGeometry x="228.28" y="220" width="60" height="30" as="geometry" />
        </mxCell>
        <mxCell id="9piaaejg3JEfzZiYlQcQ-25" style="edgeStyle=orthogonalEdgeStyle;rounded=0;orthogonalLoop=1;jettySize=auto;html=1;entryX=0.5;entryY=0;entryDx=0;entryDy=0;" parent="1" source="9piaaejg3JEfzZiYlQcQ-2" target="9piaaejg3JEfzZiYlQcQ-4" edge="1">
          <mxGeometry relative="1" as="geometry" />
        </mxCell>
        <mxCell id="9piaaejg3JEfzZiYlQcQ-2" value="" style="ellipse;whiteSpace=wrap;html=1;aspect=fixed;" parent="1" vertex="1">
          <mxGeometry x="898.28" y="100" width="40" height="40" as="geometry" />
        </mxCell>
        <mxCell id="9piaaejg3JEfzZiYlQcQ-3" style="edgeStyle=orthogonalEdgeStyle;rounded=0;orthogonalLoop=1;jettySize=auto;html=1;entryX=0.5;entryY=0;entryDx=0;entryDy=0;" parent="1" source="9piaaejg3JEfzZiYlQcQ-4" edge="1">
          <mxGeometry relative="1" as="geometry">
            <mxPoint x="918.28" y="250" as="targetPoint" />
          </mxGeometry>
        </mxCell>
        <mxCell id="9piaaejg3JEfzZiYlQcQ-4" value="Отрыть раздел&lt;div&gt;&quot;Просмотр продукта&quot;&lt;/div&gt;" style="rounded=1;whiteSpace=wrap;html=1;" parent="1" vertex="1">
          <mxGeometry x="868.28" y="170" width="100" height="50" as="geometry" />
        </mxCell>
        <mxCell id="9piaaejg3JEfzZiYlQcQ-5" style="edgeStyle=orthogonalEdgeStyle;rounded=0;orthogonalLoop=1;jettySize=auto;html=1;" parent="1" edge="1">
          <mxGeometry relative="1" as="geometry">
            <mxPoint x="918.28" y="300" as="sourcePoint" />
            <mxPoint x="918.28" y="330" as="targetPoint" />
          </mxGeometry>
        </mxCell>
        <mxCell id="9piaaejg3JEfzZiYlQcQ-6" style="edgeStyle=orthogonalEdgeStyle;rounded=0;orthogonalLoop=1;jettySize=auto;html=1;entryX=0.5;entryY=0;entryDx=0;entryDy=0;" parent="1" target="9piaaejg3JEfzZiYlQcQ-9" edge="1">
          <mxGeometry relative="1" as="geometry">
            <mxPoint x="918.28" y="380" as="sourcePoint" />
          </mxGeometry>
        </mxCell>
        <mxCell id="9piaaejg3JEfzZiYlQcQ-7" style="edgeStyle=orthogonalEdgeStyle;rounded=0;orthogonalLoop=1;jettySize=auto;html=1;entryX=0.5;entryY=0;entryDx=0;entryDy=0;" parent="1" source="9piaaejg3JEfzZiYlQcQ-9" target="9piaaejg3JEfzZiYlQcQ-11" edge="1">
          <mxGeometry relative="1" as="geometry" />
        </mxCell>
        <mxCell id="9piaaejg3JEfzZiYlQcQ-8" style="edgeStyle=orthogonalEdgeStyle;rounded=0;orthogonalLoop=1;jettySize=auto;html=1;entryX=0.5;entryY=0;entryDx=0;entryDy=0;" parent="1" source="9piaaejg3JEfzZiYlQcQ-9" target="9piaaejg3JEfzZiYlQcQ-13" edge="1">
          <mxGeometry relative="1" as="geometry" />
        </mxCell>
        <mxCell id="9piaaejg3JEfzZiYlQcQ-9" value="Данные&amp;nbsp;&lt;div&gt;корректны?&lt;/div&gt;" style="rhombus;whiteSpace=wrap;html=1;" parent="1" vertex="1">
          <mxGeometry x="860" y="410" width="116.56" height="70" as="geometry" />
        </mxCell>
        <mxCell id="9piaaejg3JEfzZiYlQcQ-10" style="edgeStyle=orthogonalEdgeStyle;rounded=0;orthogonalLoop=1;jettySize=auto;html=1;" parent="1" source="9piaaejg3JEfzZiYlQcQ-11" edge="1">
          <mxGeometry relative="1" as="geometry">
            <mxPoint x="918.28" y="240" as="targetPoint" />
            <Array as="points">
              <mxPoint x="1048.28" y="630" />
              <mxPoint x="1128.28" y="630" />
              <mxPoint x="1128.28" y="240" />
            </Array>
          </mxGeometry>
        </mxCell>
        <mxCell id="9piaaejg3JEfzZiYlQcQ-11" value="Вывод окна&lt;br&gt;&quot;Данные некорректны&quot;" style="shape=parallelogram;perimeter=parallelogramPerimeter;whiteSpace=wrap;html=1;fixedSize=1;" parent="1" vertex="1">
          <mxGeometry x="988.28" y="510" width="120" height="50" as="geometry" />
        </mxCell>
        <mxCell id="9piaaejg3JEfzZiYlQcQ-12" style="edgeStyle=orthogonalEdgeStyle;rounded=0;orthogonalLoop=1;jettySize=auto;html=1;entryX=0.5;entryY=0;entryDx=0;entryDy=0;" parent="1" source="9piaaejg3JEfzZiYlQcQ-13" target="9piaaejg3JEfzZiYlQcQ-15" edge="1">
          <mxGeometry relative="1" as="geometry" />
        </mxCell>
        <mxCell id="9piaaejg3JEfzZiYlQcQ-13" value="Генерация ID продукта" style="rounded=1;whiteSpace=wrap;html=1;" parent="1" vertex="1">
          <mxGeometry x="868.28" y="510" width="100" height="50" as="geometry" />
        </mxCell>
        <mxCell id="9piaaejg3JEfzZiYlQcQ-14" style="edgeStyle=orthogonalEdgeStyle;rounded=0;orthogonalLoop=1;jettySize=auto;html=1;entryX=0.5;entryY=0;entryDx=0;entryDy=0;" parent="1" source="9piaaejg3JEfzZiYlQcQ-15" target="9piaaejg3JEfzZiYlQcQ-17" edge="1">
          <mxGeometry relative="1" as="geometry" />
        </mxCell>
        <mxCell id="9piaaejg3JEfzZiYlQcQ-15" value="Сохранение данных о продукте в БД" style="rounded=1;whiteSpace=wrap;html=1;" parent="1" vertex="1">
          <mxGeometry x="868.28" y="594.5" width="100" height="50" as="geometry" />
        </mxCell>
        <mxCell id="9piaaejg3JEfzZiYlQcQ-16" style="edgeStyle=orthogonalEdgeStyle;rounded=0;orthogonalLoop=1;jettySize=auto;html=1;entryX=0.5;entryY=0;entryDx=0;entryDy=0;" parent="1" source="9piaaejg3JEfzZiYlQcQ-17" target="9piaaejg3JEfzZiYlQcQ-18" edge="1">
          <mxGeometry relative="1" as="geometry" />
        </mxCell>
        <mxCell id="9piaaejg3JEfzZiYlQcQ-17" value="Обновление каталога" style="rounded=1;whiteSpace=wrap;html=1;" parent="1" vertex="1">
          <mxGeometry x="868.28" y="680" width="100" height="50" as="geometry" />
        </mxCell>
        <mxCell id="9piaaejg3JEfzZiYlQcQ-18" value="" style="ellipse;whiteSpace=wrap;html=1;aspect=fixed;" parent="1" vertex="1">
          <mxGeometry x="898.28" y="770" width="40" height="40" as="geometry" />
        </mxCell>
        <mxCell id="9piaaejg3JEfzZiYlQcQ-19" value="Начало" style="text;html=1;align=center;verticalAlign=middle;whiteSpace=wrap;rounded=0;" parent="1" vertex="1">
          <mxGeometry x="938.28" y="130" width="60" height="30" as="geometry" />
        </mxCell>
        <mxCell id="9piaaejg3JEfzZiYlQcQ-20" value="Конец" style="text;html=1;align=center;verticalAlign=middle;whiteSpace=wrap;rounded=0;" parent="1" vertex="1">
          <mxGeometry x="938.28" y="750" width="60" height="30" as="geometry" />
        </mxCell>
        <mxCell id="9piaaejg3JEfzZiYlQcQ-21" value="Нет" style="text;html=1;align=center;verticalAlign=middle;whiteSpace=wrap;rounded=0;" parent="1" vertex="1">
          <mxGeometry x="968.28" y="420" width="60" height="30" as="geometry" />
        </mxCell>
        <mxCell id="9piaaejg3JEfzZiYlQcQ-22" value="Да" style="text;html=1;align=center;verticalAlign=middle;whiteSpace=wrap;rounded=0;" parent="1" vertex="1">
          <mxGeometry x="916.56" y="470" width="60" height="30" as="geometry" />
        </mxCell>
        <mxCell id="9piaaejg3JEfzZiYlQcQ-23" value="Вести данные о продукте" style="rounded=1;whiteSpace=wrap;html=1;" parent="1" vertex="1">
          <mxGeometry x="868.28" y="250" width="100" height="50" as="geometry" />
        </mxCell>
        <mxCell id="9piaaejg3JEfzZiYlQcQ-24" value="Нажать на кнопку&lt;div&gt;&quot;Добавить&quot;&lt;/div&gt;" style="rounded=1;whiteSpace=wrap;html=1;" parent="1" vertex="1">
          <mxGeometry x="868.28" y="330" width="100" height="50" as="geometry" />
        </mxCell>
        <mxCell id="9piaaejg3JEfzZiYlQcQ-26" value="&lt;font style=&quot;font-size: 18px;&quot;&gt;Добавить продукт&lt;/font&gt;" style="text;html=1;align=center;verticalAlign=middle;whiteSpace=wrap;rounded=0;" parent="1" vertex="1">
          <mxGeometry x="898.28" y="40" width="60" height="30" as="geometry" />
        </mxCell>
        <mxCell id="9piaaejg3JEfzZiYlQcQ-27" style="edgeStyle=orthogonalEdgeStyle;rounded=0;orthogonalLoop=1;jettySize=auto;html=1;entryX=0.5;entryY=0;entryDx=0;entryDy=0;" parent="1" source="9piaaejg3JEfzZiYlQcQ-28" target="9piaaejg3JEfzZiYlQcQ-30" edge="1">
          <mxGeometry relative="1" as="geometry" />
        </mxCell>
        <mxCell id="9piaaejg3JEfzZiYlQcQ-28" value="" style="ellipse;whiteSpace=wrap;html=1;aspect=fixed;" parent="1" vertex="1">
          <mxGeometry x="1270" y="100" width="40" height="40" as="geometry" />
        </mxCell>
        <mxCell id="9piaaejg3JEfzZiYlQcQ-29" style="edgeStyle=orthogonalEdgeStyle;rounded=0;orthogonalLoop=1;jettySize=auto;html=1;entryX=0.5;entryY=0;entryDx=0;entryDy=0;" parent="1" source="9piaaejg3JEfzZiYlQcQ-30" edge="1">
          <mxGeometry relative="1" as="geometry">
            <mxPoint x="1290" y="250" as="targetPoint" />
          </mxGeometry>
        </mxCell>
        <mxCell id="9piaaejg3JEfzZiYlQcQ-30" value="Отрыть раздел&lt;div&gt;&quot;Просмотр продукта&quot;&lt;/div&gt;" style="rounded=1;whiteSpace=wrap;html=1;" parent="1" vertex="1">
          <mxGeometry x="1240" y="170" width="100" height="50" as="geometry" />
        </mxCell>
        <mxCell id="9piaaejg3JEfzZiYlQcQ-31" style="edgeStyle=orthogonalEdgeStyle;rounded=0;orthogonalLoop=1;jettySize=auto;html=1;" parent="1" edge="1">
          <mxGeometry relative="1" as="geometry">
            <mxPoint x="1290" y="300" as="sourcePoint" />
            <mxPoint x="1290" y="330" as="targetPoint" />
          </mxGeometry>
        </mxCell>
        <mxCell id="9piaaejg3JEfzZiYlQcQ-32" style="edgeStyle=orthogonalEdgeStyle;rounded=0;orthogonalLoop=1;jettySize=auto;html=1;entryX=0.5;entryY=0;entryDx=0;entryDy=0;" parent="1" target="9piaaejg3JEfzZiYlQcQ-36" edge="1">
          <mxGeometry relative="1" as="geometry">
            <mxPoint x="1348.28" y="525" as="sourcePoint" />
          </mxGeometry>
        </mxCell>
        <mxCell id="9piaaejg3JEfzZiYlQcQ-33" style="edgeStyle=orthogonalEdgeStyle;rounded=0;orthogonalLoop=1;jettySize=auto;html=1;entryX=0.5;entryY=0;entryDx=0;entryDy=0;" parent="1" edge="1">
          <mxGeometry relative="1" as="geometry">
            <mxPoint x="1290" y="590" as="targetPoint" />
            <mxPoint x="1290.0729411764707" y="559.9561952440552" as="sourcePoint" />
          </mxGeometry>
        </mxCell>
        <mxCell id="9piaaejg3JEfzZiYlQcQ-34" value="Данные&amp;nbsp;&lt;div&gt;корректны?&lt;/div&gt;" style="rhombus;whiteSpace=wrap;html=1;" parent="1" vertex="1">
          <mxGeometry x="1231.72" y="490" width="116.56" height="70" as="geometry" />
        </mxCell>
        <mxCell id="9piaaejg3JEfzZiYlQcQ-35" style="edgeStyle=orthogonalEdgeStyle;rounded=0;orthogonalLoop=1;jettySize=auto;html=1;" parent="1" source="9piaaejg3JEfzZiYlQcQ-36" edge="1">
          <mxGeometry relative="1" as="geometry">
            <mxPoint x="1290" y="240" as="targetPoint" />
            <Array as="points">
              <mxPoint x="1418" y="700" />
              <mxPoint x="1500" y="700" />
              <mxPoint x="1500" y="240" />
            </Array>
          </mxGeometry>
        </mxCell>
        <mxCell id="9piaaejg3JEfzZiYlQcQ-36" value="Вывод окна&lt;br&gt;&quot;Данные некорректны&quot;" style="shape=parallelogram;perimeter=parallelogramPerimeter;whiteSpace=wrap;html=1;fixedSize=1;" parent="1" vertex="1">
          <mxGeometry x="1358.28" y="590" width="120" height="50" as="geometry" />
        </mxCell>
        <mxCell id="9piaaejg3JEfzZiYlQcQ-37" style="edgeStyle=orthogonalEdgeStyle;rounded=0;orthogonalLoop=1;jettySize=auto;html=1;entryX=0.5;entryY=0;entryDx=0;entryDy=0;" parent="1" source="9piaaejg3JEfzZiYlQcQ-38" target="9piaaejg3JEfzZiYlQcQ-40" edge="1">
          <mxGeometry relative="1" as="geometry" />
        </mxCell>
        <mxCell id="9piaaejg3JEfzZiYlQcQ-38" value="Сохранение данных о продукте в БД" style="rounded=1;whiteSpace=wrap;html=1;" parent="1" vertex="1">
          <mxGeometry x="1241.72" y="590" width="100" height="50" as="geometry" />
        </mxCell>
        <mxCell id="9piaaejg3JEfzZiYlQcQ-39" style="edgeStyle=orthogonalEdgeStyle;rounded=0;orthogonalLoop=1;jettySize=auto;html=1;entryX=0.5;entryY=0;entryDx=0;entryDy=0;" parent="1" source="9piaaejg3JEfzZiYlQcQ-40" target="9piaaejg3JEfzZiYlQcQ-41" edge="1">
          <mxGeometry relative="1" as="geometry" />
        </mxCell>
        <mxCell id="9piaaejg3JEfzZiYlQcQ-40" value="Обновление каталога" style="rounded=1;whiteSpace=wrap;html=1;" parent="1" vertex="1">
          <mxGeometry x="1241.72" y="675.5" width="100" height="50" as="geometry" />
        </mxCell>
        <mxCell id="9piaaejg3JEfzZiYlQcQ-41" value="" style="ellipse;whiteSpace=wrap;html=1;aspect=fixed;" parent="1" vertex="1">
          <mxGeometry x="1271.72" y="765.5" width="40" height="40" as="geometry" />
        </mxCell>
        <mxCell id="9piaaejg3JEfzZiYlQcQ-42" value="Начало" style="text;html=1;align=center;verticalAlign=middle;whiteSpace=wrap;rounded=0;" parent="1" vertex="1">
          <mxGeometry x="1310" y="130" width="60" height="30" as="geometry" />
        </mxCell>
        <mxCell id="9piaaejg3JEfzZiYlQcQ-43" value="Конец" style="text;html=1;align=center;verticalAlign=middle;whiteSpace=wrap;rounded=0;" parent="1" vertex="1">
          <mxGeometry x="1310" y="745.5" width="60" height="30" as="geometry" />
        </mxCell>
        <mxCell id="9piaaejg3JEfzZiYlQcQ-44" value="Нет" style="text;html=1;align=center;verticalAlign=middle;whiteSpace=wrap;rounded=0;" parent="1" vertex="1">
          <mxGeometry x="1338.28" y="500" width="60" height="30" as="geometry" />
        </mxCell>
        <mxCell id="9piaaejg3JEfzZiYlQcQ-45" value="Да" style="text;html=1;align=center;verticalAlign=middle;whiteSpace=wrap;rounded=0;" parent="1" vertex="1">
          <mxGeometry x="1286.56" y="550" width="60" height="30" as="geometry" />
        </mxCell>
        <mxCell id="9piaaejg3JEfzZiYlQcQ-46" value="Выбрать данные о продукте" style="rounded=1;whiteSpace=wrap;html=1;" parent="1" vertex="1">
          <mxGeometry x="1240" y="250" width="100" height="50" as="geometry" />
        </mxCell>
        <mxCell id="9piaaejg3JEfzZiYlQcQ-47" style="edgeStyle=orthogonalEdgeStyle;rounded=0;orthogonalLoop=1;jettySize=auto;html=1;entryX=0.5;entryY=0;entryDx=0;entryDy=0;" parent="1" source="9piaaejg3JEfzZiYlQcQ-48" target="9piaaejg3JEfzZiYlQcQ-50" edge="1">
          <mxGeometry relative="1" as="geometry" />
        </mxCell>
        <mxCell id="9piaaejg3JEfzZiYlQcQ-48" value="Нажать на кнопку&lt;div&gt;&quot;Редактировать&quot;&lt;/div&gt;" style="rounded=1;whiteSpace=wrap;html=1;" parent="1" vertex="1">
          <mxGeometry x="1240" y="330" width="100" height="50" as="geometry" />
        </mxCell>
        <mxCell id="9piaaejg3JEfzZiYlQcQ-49" style="edgeStyle=orthogonalEdgeStyle;rounded=0;orthogonalLoop=1;jettySize=auto;html=1;entryX=0.5;entryY=0;entryDx=0;entryDy=0;" parent="1" source="9piaaejg3JEfzZiYlQcQ-50" edge="1">
          <mxGeometry relative="1" as="geometry">
            <mxPoint x="1290.0000000000002" y="490" as="targetPoint" />
          </mxGeometry>
        </mxCell>
        <mxCell id="9piaaejg3JEfzZiYlQcQ-50" value="Ввести новые данные о продукте" style="rounded=1;whiteSpace=wrap;html=1;" parent="1" vertex="1">
          <mxGeometry x="1240" y="410" width="100" height="50" as="geometry" />
        </mxCell>
        <mxCell id="9piaaejg3JEfzZiYlQcQ-51" value="&lt;font style=&quot;font-size: 18px;&quot;&gt;Редактировать продукт&lt;/font&gt;" style="text;html=1;align=center;verticalAlign=middle;whiteSpace=wrap;rounded=0;" parent="1" vertex="1">
          <mxGeometry x="1270" y="40" width="60" height="30" as="geometry" />
        </mxCell>
        <mxCell id="9piaaejg3JEfzZiYlQcQ-52" style="edgeStyle=orthogonalEdgeStyle;rounded=0;orthogonalLoop=1;jettySize=auto;html=1;entryX=0.5;entryY=0;entryDx=0;entryDy=0;" parent="1" source="9piaaejg3JEfzZiYlQcQ-53" target="9piaaejg3JEfzZiYlQcQ-55" edge="1">
          <mxGeometry relative="1" as="geometry" />
        </mxCell>
        <mxCell id="9piaaejg3JEfzZiYlQcQ-53" value="" style="ellipse;whiteSpace=wrap;html=1;aspect=fixed;" parent="1" vertex="1">
          <mxGeometry x="1694" y="100" width="40" height="40" as="geometry" />
        </mxCell>
        <mxCell id="9piaaejg3JEfzZiYlQcQ-54" style="edgeStyle=orthogonalEdgeStyle;rounded=0;orthogonalLoop=1;jettySize=auto;html=1;entryX=0.5;entryY=0;entryDx=0;entryDy=0;" parent="1" source="9piaaejg3JEfzZiYlQcQ-55" edge="1">
          <mxGeometry relative="1" as="geometry">
            <mxPoint x="1714" y="250" as="targetPoint" />
          </mxGeometry>
        </mxCell>
        <mxCell id="9piaaejg3JEfzZiYlQcQ-55" value="Отрыть раздел&lt;div&gt;&quot;Просмотр продукта&quot;&lt;/div&gt;" style="rounded=1;whiteSpace=wrap;html=1;" parent="1" vertex="1">
          <mxGeometry x="1664" y="170" width="100" height="50" as="geometry" />
        </mxCell>
        <mxCell id="9piaaejg3JEfzZiYlQcQ-56" style="edgeStyle=orthogonalEdgeStyle;rounded=0;orthogonalLoop=1;jettySize=auto;html=1;" parent="1" edge="1">
          <mxGeometry relative="1" as="geometry">
            <mxPoint x="1714" y="300" as="sourcePoint" />
            <mxPoint x="1714" y="330" as="targetPoint" />
          </mxGeometry>
        </mxCell>
        <mxCell id="9piaaejg3JEfzZiYlQcQ-57" style="edgeStyle=orthogonalEdgeStyle;rounded=0;orthogonalLoop=1;jettySize=auto;html=1;entryX=0.5;entryY=0;entryDx=0;entryDy=0;" parent="1" source="9piaaejg3JEfzZiYlQcQ-58" target="9piaaejg3JEfzZiYlQcQ-59" edge="1">
          <mxGeometry relative="1" as="geometry" />
        </mxCell>
        <mxCell id="9piaaejg3JEfzZiYlQcQ-58" value="Обновление каталога" style="rounded=1;whiteSpace=wrap;html=1;" parent="1" vertex="1">
          <mxGeometry x="1664" y="670" width="100" height="50" as="geometry" />
        </mxCell>
        <mxCell id="9piaaejg3JEfzZiYlQcQ-59" value="" style="ellipse;whiteSpace=wrap;html=1;aspect=fixed;" parent="1" vertex="1">
          <mxGeometry x="1694" y="760" width="40" height="40" as="geometry" />
        </mxCell>
        <mxCell id="9piaaejg3JEfzZiYlQcQ-60" value="Начало" style="text;html=1;align=center;verticalAlign=middle;whiteSpace=wrap;rounded=0;" parent="1" vertex="1">
          <mxGeometry x="1734" y="130" width="60" height="30" as="geometry" />
        </mxCell>
        <mxCell id="9piaaejg3JEfzZiYlQcQ-61" value="Конец" style="text;html=1;align=center;verticalAlign=middle;whiteSpace=wrap;rounded=0;" parent="1" vertex="1">
          <mxGeometry x="1732.28" y="740" width="60" height="30" as="geometry" />
        </mxCell>
        <mxCell id="9piaaejg3JEfzZiYlQcQ-62" value="Нет" style="text;html=1;align=center;verticalAlign=middle;whiteSpace=wrap;rounded=0;" parent="1" vertex="1">
          <mxGeometry x="1772.28" y="500" width="60" height="30" as="geometry" />
        </mxCell>
        <mxCell id="9piaaejg3JEfzZiYlQcQ-63" value="Да" style="text;html=1;align=center;verticalAlign=middle;whiteSpace=wrap;rounded=0;" parent="1" vertex="1">
          <mxGeometry x="1704" y="550" width="60" height="30" as="geometry" />
        </mxCell>
        <mxCell id="9piaaejg3JEfzZiYlQcQ-64" value="Выбрать данные о продукте" style="rounded=1;whiteSpace=wrap;html=1;" parent="1" vertex="1">
          <mxGeometry x="1664" y="250" width="100" height="50" as="geometry" />
        </mxCell>
        <mxCell id="9piaaejg3JEfzZiYlQcQ-65" style="edgeStyle=orthogonalEdgeStyle;rounded=0;orthogonalLoop=1;jettySize=auto;html=1;entryX=0.5;entryY=0;entryDx=0;entryDy=0;" parent="1" source="9piaaejg3JEfzZiYlQcQ-66" edge="1">
          <mxGeometry relative="1" as="geometry">
            <mxPoint x="1714" y="410" as="targetPoint" />
          </mxGeometry>
        </mxCell>
        <mxCell id="9piaaejg3JEfzZiYlQcQ-66" value="Нажать на кнопку&lt;div&gt;&quot;Удалить&quot;&lt;/div&gt;" style="rounded=1;whiteSpace=wrap;html=1;" parent="1" vertex="1">
          <mxGeometry x="1664" y="330" width="100" height="50" as="geometry" />
        </mxCell>
        <mxCell id="9piaaejg3JEfzZiYlQcQ-67" style="edgeStyle=orthogonalEdgeStyle;rounded=0;orthogonalLoop=1;jettySize=auto;html=1;entryX=0.5;entryY=0;entryDx=0;entryDy=0;" parent="1" source="9piaaejg3JEfzZiYlQcQ-68" target="9piaaejg3JEfzZiYlQcQ-58" edge="1">
          <mxGeometry relative="1" as="geometry" />
        </mxCell>
        <mxCell id="9piaaejg3JEfzZiYlQcQ-68" value="Удаление продукта из БД" style="rounded=1;whiteSpace=wrap;html=1;" parent="1" vertex="1">
          <mxGeometry x="1664" y="590" width="100" height="50" as="geometry" />
        </mxCell>
        <mxCell id="9piaaejg3JEfzZiYlQcQ-69" style="edgeStyle=orthogonalEdgeStyle;rounded=0;orthogonalLoop=1;jettySize=auto;html=1;entryX=0.5;entryY=0;entryDx=0;entryDy=0;" parent="1" source="9piaaejg3JEfzZiYlQcQ-70" target="9piaaejg3JEfzZiYlQcQ-73" edge="1">
          <mxGeometry relative="1" as="geometry" />
        </mxCell>
        <mxCell id="9piaaejg3JEfzZiYlQcQ-70" value="Вывод окна&lt;br&gt;&quot;Удалить&amp;nbsp;&lt;div&gt;продукт?&quot;&lt;/div&gt;" style="shape=parallelogram;perimeter=parallelogramPerimeter;whiteSpace=wrap;html=1;fixedSize=1;" parent="1" vertex="1">
          <mxGeometry x="1654" y="410" width="120" height="50" as="geometry" />
        </mxCell>
        <mxCell id="9piaaejg3JEfzZiYlQcQ-71" style="edgeStyle=orthogonalEdgeStyle;rounded=0;orthogonalLoop=1;jettySize=auto;html=1;entryX=0.5;entryY=0;entryDx=0;entryDy=0;" parent="1" source="9piaaejg3JEfzZiYlQcQ-73" target="9piaaejg3JEfzZiYlQcQ-68" edge="1">
          <mxGeometry relative="1" as="geometry" />
        </mxCell>
        <mxCell id="9piaaejg3JEfzZiYlQcQ-72" style="edgeStyle=orthogonalEdgeStyle;rounded=0;orthogonalLoop=1;jettySize=auto;html=1;" parent="1" source="9piaaejg3JEfzZiYlQcQ-73" edge="1">
          <mxGeometry relative="1" as="geometry">
            <mxPoint x="1714" y="240" as="targetPoint" />
            <Array as="points">
              <mxPoint x="1865" y="525" />
            </Array>
          </mxGeometry>
        </mxCell>
        <mxCell id="9piaaejg3JEfzZiYlQcQ-73" value="&lt;div&gt;&lt;br&gt;&lt;/div&gt;Вы уверены что хотите?" style="rhombus;whiteSpace=wrap;html=1;" parent="1" vertex="1">
          <mxGeometry x="1655.72" y="490" width="116.56" height="70" as="geometry" />
        </mxCell>
        <mxCell id="9piaaejg3JEfzZiYlQcQ-74" value="&lt;font style=&quot;font-size: 18px;&quot;&gt;Удалить продукт&lt;/font&gt;" style="text;html=1;align=center;verticalAlign=middle;whiteSpace=wrap;rounded=0;" parent="1" vertex="1">
          <mxGeometry x="1684" y="40" width="60" height="30" as="geometry" />
        </mxCell>
        <mxCell id="9piaaejg3JEfzZiYlQcQ-75" style="edgeStyle=orthogonalEdgeStyle;rounded=0;orthogonalLoop=1;jettySize=auto;html=1;entryX=0.5;entryY=0;entryDx=0;entryDy=0;" parent="1" source="9piaaejg3JEfzZiYlQcQ-76" target="9piaaejg3JEfzZiYlQcQ-78" edge="1">
          <mxGeometry relative="1" as="geometry" />
        </mxCell>
        <mxCell id="9piaaejg3JEfzZiYlQcQ-76" value="" style="ellipse;whiteSpace=wrap;html=1;aspect=fixed;" parent="1" vertex="1">
          <mxGeometry x="898.28" y="870" width="40" height="40" as="geometry" />
        </mxCell>
        <mxCell id="9piaaejg3JEfzZiYlQcQ-77" style="edgeStyle=orthogonalEdgeStyle;rounded=0;orthogonalLoop=1;jettySize=auto;html=1;entryX=0.5;entryY=0;entryDx=0;entryDy=0;" parent="1" source="9piaaejg3JEfzZiYlQcQ-78" edge="1">
          <mxGeometry relative="1" as="geometry">
            <mxPoint x="918.28" y="1020" as="targetPoint" />
          </mxGeometry>
        </mxCell>
        <mxCell id="9piaaejg3JEfzZiYlQcQ-78" value="Отрыть раздел&lt;div&gt;&quot;Просмотр категорий&quot;&lt;/div&gt;" style="rounded=1;whiteSpace=wrap;html=1;" parent="1" vertex="1">
          <mxGeometry x="868.28" y="940" width="100" height="50" as="geometry" />
        </mxCell>
        <mxCell id="9piaaejg3JEfzZiYlQcQ-79" style="edgeStyle=orthogonalEdgeStyle;rounded=0;orthogonalLoop=1;jettySize=auto;html=1;" parent="1" edge="1">
          <mxGeometry relative="1" as="geometry">
            <mxPoint x="918.28" y="1070" as="sourcePoint" />
            <mxPoint x="918.28" y="1100" as="targetPoint" />
          </mxGeometry>
        </mxCell>
        <mxCell id="9piaaejg3JEfzZiYlQcQ-80" style="edgeStyle=orthogonalEdgeStyle;rounded=0;orthogonalLoop=1;jettySize=auto;html=1;entryX=0.5;entryY=0;entryDx=0;entryDy=0;" parent="1" target="9piaaejg3JEfzZiYlQcQ-83" edge="1">
          <mxGeometry relative="1" as="geometry">
            <mxPoint x="918.28" y="1150" as="sourcePoint" />
          </mxGeometry>
        </mxCell>
        <mxCell id="9piaaejg3JEfzZiYlQcQ-81" style="edgeStyle=orthogonalEdgeStyle;rounded=0;orthogonalLoop=1;jettySize=auto;html=1;entryX=0.5;entryY=0;entryDx=0;entryDy=0;" parent="1" source="9piaaejg3JEfzZiYlQcQ-83" target="9piaaejg3JEfzZiYlQcQ-85" edge="1">
          <mxGeometry relative="1" as="geometry" />
        </mxCell>
        <mxCell id="9piaaejg3JEfzZiYlQcQ-82" style="edgeStyle=orthogonalEdgeStyle;rounded=0;orthogonalLoop=1;jettySize=auto;html=1;entryX=0.5;entryY=0;entryDx=0;entryDy=0;" parent="1" source="9piaaejg3JEfzZiYlQcQ-83" target="9piaaejg3JEfzZiYlQcQ-87" edge="1">
          <mxGeometry relative="1" as="geometry" />
        </mxCell>
        <mxCell id="9piaaejg3JEfzZiYlQcQ-83" value="Данные&amp;nbsp;&lt;div&gt;корректны?&lt;/div&gt;" style="rhombus;whiteSpace=wrap;html=1;" parent="1" vertex="1">
          <mxGeometry x="860" y="1180" width="116.56" height="70" as="geometry" />
        </mxCell>
        <mxCell id="9piaaejg3JEfzZiYlQcQ-84" style="edgeStyle=orthogonalEdgeStyle;rounded=0;orthogonalLoop=1;jettySize=auto;html=1;" parent="1" source="9piaaejg3JEfzZiYlQcQ-85" edge="1">
          <mxGeometry relative="1" as="geometry">
            <mxPoint x="918.28" y="1010" as="targetPoint" />
            <Array as="points">
              <mxPoint x="1048.28" y="1400" />
              <mxPoint x="1128.28" y="1400" />
              <mxPoint x="1128.28" y="1010" />
            </Array>
          </mxGeometry>
        </mxCell>
        <mxCell id="9piaaejg3JEfzZiYlQcQ-85" value="Вывод окна&lt;br&gt;&quot;Данные некорректны&quot;" style="shape=parallelogram;perimeter=parallelogramPerimeter;whiteSpace=wrap;html=1;fixedSize=1;" parent="1" vertex="1">
          <mxGeometry x="988.28" y="1280" width="120" height="50" as="geometry" />
        </mxCell>
        <mxCell id="9piaaejg3JEfzZiYlQcQ-86" style="edgeStyle=orthogonalEdgeStyle;rounded=0;orthogonalLoop=1;jettySize=auto;html=1;entryX=0.5;entryY=0;entryDx=0;entryDy=0;" parent="1" source="9piaaejg3JEfzZiYlQcQ-87" target="9piaaejg3JEfzZiYlQcQ-89" edge="1">
          <mxGeometry relative="1" as="geometry" />
        </mxCell>
        <mxCell id="9piaaejg3JEfzZiYlQcQ-87" value="Генерация ID категории" style="rounded=1;whiteSpace=wrap;html=1;" parent="1" vertex="1">
          <mxGeometry x="868.28" y="1280" width="100" height="50" as="geometry" />
        </mxCell>
        <mxCell id="9piaaejg3JEfzZiYlQcQ-88" style="edgeStyle=orthogonalEdgeStyle;rounded=0;orthogonalLoop=1;jettySize=auto;html=1;entryX=0.5;entryY=0;entryDx=0;entryDy=0;" parent="1" source="9piaaejg3JEfzZiYlQcQ-89" target="9piaaejg3JEfzZiYlQcQ-91" edge="1">
          <mxGeometry relative="1" as="geometry" />
        </mxCell>
        <mxCell id="9piaaejg3JEfzZiYlQcQ-89" value="Сохранение данных о категории в БД" style="rounded=1;whiteSpace=wrap;html=1;" parent="1" vertex="1">
          <mxGeometry x="868.28" y="1364.5" width="100" height="50" as="geometry" />
        </mxCell>
        <mxCell id="9piaaejg3JEfzZiYlQcQ-90" style="edgeStyle=orthogonalEdgeStyle;rounded=0;orthogonalLoop=1;jettySize=auto;html=1;entryX=0.5;entryY=0;entryDx=0;entryDy=0;" parent="1" source="9piaaejg3JEfzZiYlQcQ-91" target="9piaaejg3JEfzZiYlQcQ-92" edge="1">
          <mxGeometry relative="1" as="geometry" />
        </mxCell>
        <mxCell id="9piaaejg3JEfzZiYlQcQ-91" value="Обновление списка" style="rounded=1;whiteSpace=wrap;html=1;" parent="1" vertex="1">
          <mxGeometry x="868.28" y="1450" width="100" height="50" as="geometry" />
        </mxCell>
        <mxCell id="9piaaejg3JEfzZiYlQcQ-92" value="" style="ellipse;whiteSpace=wrap;html=1;aspect=fixed;" parent="1" vertex="1">
          <mxGeometry x="898.28" y="1540" width="40" height="40" as="geometry" />
        </mxCell>
        <mxCell id="9piaaejg3JEfzZiYlQcQ-93" value="Начало" style="text;html=1;align=center;verticalAlign=middle;whiteSpace=wrap;rounded=0;" parent="1" vertex="1">
          <mxGeometry x="938.28" y="900" width="60" height="30" as="geometry" />
        </mxCell>
        <mxCell id="9piaaejg3JEfzZiYlQcQ-94" value="Конец" style="text;html=1;align=center;verticalAlign=middle;whiteSpace=wrap;rounded=0;" parent="1" vertex="1">
          <mxGeometry x="938.28" y="1520" width="60" height="30" as="geometry" />
        </mxCell>
        <mxCell id="9piaaejg3JEfzZiYlQcQ-95" value="Нет" style="text;html=1;align=center;verticalAlign=middle;whiteSpace=wrap;rounded=0;" parent="1" vertex="1">
          <mxGeometry x="968.28" y="1190" width="60" height="30" as="geometry" />
        </mxCell>
        <mxCell id="9piaaejg3JEfzZiYlQcQ-96" value="Да" style="text;html=1;align=center;verticalAlign=middle;whiteSpace=wrap;rounded=0;" parent="1" vertex="1">
          <mxGeometry x="916.56" y="1240" width="60" height="30" as="geometry" />
        </mxCell>
        <mxCell id="9piaaejg3JEfzZiYlQcQ-97" value="Вести данные о категории" style="rounded=1;whiteSpace=wrap;html=1;" parent="1" vertex="1">
          <mxGeometry x="868.28" y="1020" width="100" height="50" as="geometry" />
        </mxCell>
        <mxCell id="9piaaejg3JEfzZiYlQcQ-98" value="Нажать на кнопку&lt;div&gt;&quot;Добавить&quot;&lt;/div&gt;" style="rounded=1;whiteSpace=wrap;html=1;" parent="1" vertex="1">
          <mxGeometry x="868.28" y="1100" width="100" height="50" as="geometry" />
        </mxCell>
        <mxCell id="9piaaejg3JEfzZiYlQcQ-99" value="&lt;font style=&quot;font-size: 18px;&quot;&gt;Добавить категории&lt;/font&gt;" style="text;html=1;align=center;verticalAlign=middle;whiteSpace=wrap;rounded=0;" parent="1" vertex="1">
          <mxGeometry x="888.28" y="830" width="60" height="30" as="geometry" />
        </mxCell>
        <mxCell id="9piaaejg3JEfzZiYlQcQ-100" style="edgeStyle=orthogonalEdgeStyle;rounded=0;orthogonalLoop=1;jettySize=auto;html=1;entryX=0.5;entryY=0;entryDx=0;entryDy=0;" parent="1" source="9piaaejg3JEfzZiYlQcQ-101" target="9piaaejg3JEfzZiYlQcQ-103" edge="1">
          <mxGeometry relative="1" as="geometry" />
        </mxCell>
        <mxCell id="9piaaejg3JEfzZiYlQcQ-101" value="" style="ellipse;whiteSpace=wrap;html=1;aspect=fixed;" parent="1" vertex="1">
          <mxGeometry x="1270" y="870" width="40" height="40" as="geometry" />
        </mxCell>
        <mxCell id="9piaaejg3JEfzZiYlQcQ-102" style="edgeStyle=orthogonalEdgeStyle;rounded=0;orthogonalLoop=1;jettySize=auto;html=1;entryX=0.5;entryY=0;entryDx=0;entryDy=0;" parent="1" source="9piaaejg3JEfzZiYlQcQ-103" edge="1">
          <mxGeometry relative="1" as="geometry">
            <mxPoint x="1290" y="1020" as="targetPoint" />
          </mxGeometry>
        </mxCell>
        <mxCell id="9piaaejg3JEfzZiYlQcQ-103" value="Отрыть раздел&lt;div&gt;&quot;Просмотр категорий&quot;&lt;/div&gt;" style="rounded=1;whiteSpace=wrap;html=1;" parent="1" vertex="1">
          <mxGeometry x="1240" y="940" width="100" height="50" as="geometry" />
        </mxCell>
        <mxCell id="9piaaejg3JEfzZiYlQcQ-104" style="edgeStyle=orthogonalEdgeStyle;rounded=0;orthogonalLoop=1;jettySize=auto;html=1;" parent="1" edge="1">
          <mxGeometry relative="1" as="geometry">
            <mxPoint x="1290" y="1070" as="sourcePoint" />
            <mxPoint x="1290" y="1100" as="targetPoint" />
          </mxGeometry>
        </mxCell>
        <mxCell id="9piaaejg3JEfzZiYlQcQ-105" style="edgeStyle=orthogonalEdgeStyle;rounded=0;orthogonalLoop=1;jettySize=auto;html=1;entryX=0.5;entryY=0;entryDx=0;entryDy=0;" parent="1" source="9piaaejg3JEfzZiYlQcQ-107" target="9piaaejg3JEfzZiYlQcQ-109" edge="1">
          <mxGeometry relative="1" as="geometry" />
        </mxCell>
        <mxCell id="9piaaejg3JEfzZiYlQcQ-106" style="edgeStyle=orthogonalEdgeStyle;rounded=0;orthogonalLoop=1;jettySize=auto;html=1;entryX=0.5;entryY=0;entryDx=0;entryDy=0;" parent="1" source="9piaaejg3JEfzZiYlQcQ-107" edge="1">
          <mxGeometry relative="1" as="geometry">
            <mxPoint x="1290" y="1360" as="targetPoint" />
          </mxGeometry>
        </mxCell>
        <mxCell id="9piaaejg3JEfzZiYlQcQ-107" value="Данные&amp;nbsp;&lt;div&gt;корректны?&lt;/div&gt;" style="rhombus;whiteSpace=wrap;html=1;" parent="1" vertex="1">
          <mxGeometry x="1231.72" y="1260" width="116.56" height="70" as="geometry" />
        </mxCell>
        <mxCell id="9piaaejg3JEfzZiYlQcQ-108" style="edgeStyle=orthogonalEdgeStyle;rounded=0;orthogonalLoop=1;jettySize=auto;html=1;" parent="1" source="9piaaejg3JEfzZiYlQcQ-109" edge="1">
          <mxGeometry relative="1" as="geometry">
            <mxPoint x="1290" y="1010" as="targetPoint" />
            <Array as="points">
              <mxPoint x="1418" y="1470" />
              <mxPoint x="1490" y="1470" />
              <mxPoint x="1490" y="1010" />
            </Array>
          </mxGeometry>
        </mxCell>
        <mxCell id="9piaaejg3JEfzZiYlQcQ-109" value="Вывод окна&lt;br&gt;&quot;Данные некорректны&quot;" style="shape=parallelogram;perimeter=parallelogramPerimeter;whiteSpace=wrap;html=1;fixedSize=1;" parent="1" vertex="1">
          <mxGeometry x="1358.28" y="1360" width="120" height="50" as="geometry" />
        </mxCell>
        <mxCell id="9piaaejg3JEfzZiYlQcQ-110" style="edgeStyle=orthogonalEdgeStyle;rounded=0;orthogonalLoop=1;jettySize=auto;html=1;entryX=0.5;entryY=0;entryDx=0;entryDy=0;" parent="1" source="9piaaejg3JEfzZiYlQcQ-111" target="9piaaejg3JEfzZiYlQcQ-113" edge="1">
          <mxGeometry relative="1" as="geometry" />
        </mxCell>
        <mxCell id="9piaaejg3JEfzZiYlQcQ-111" value="Сохранение данных о категории в БД" style="rounded=1;whiteSpace=wrap;html=1;" parent="1" vertex="1">
          <mxGeometry x="1241.72" y="1360" width="100" height="50" as="geometry" />
        </mxCell>
        <mxCell id="9piaaejg3JEfzZiYlQcQ-112" style="edgeStyle=orthogonalEdgeStyle;rounded=0;orthogonalLoop=1;jettySize=auto;html=1;entryX=0.5;entryY=0;entryDx=0;entryDy=0;" parent="1" source="9piaaejg3JEfzZiYlQcQ-113" target="9piaaejg3JEfzZiYlQcQ-114" edge="1">
          <mxGeometry relative="1" as="geometry" />
        </mxCell>
        <mxCell id="9piaaejg3JEfzZiYlQcQ-113" value="Обновление каталога" style="rounded=1;whiteSpace=wrap;html=1;" parent="1" vertex="1">
          <mxGeometry x="1241.72" y="1445.5" width="100" height="50" as="geometry" />
        </mxCell>
        <mxCell id="9piaaejg3JEfzZiYlQcQ-114" value="" style="ellipse;whiteSpace=wrap;html=1;aspect=fixed;" parent="1" vertex="1">
          <mxGeometry x="1271.72" y="1535.5" width="40" height="40" as="geometry" />
        </mxCell>
        <mxCell id="9piaaejg3JEfzZiYlQcQ-115" value="Начало" style="text;html=1;align=center;verticalAlign=middle;whiteSpace=wrap;rounded=0;" parent="1" vertex="1">
          <mxGeometry x="1310" y="900" width="60" height="30" as="geometry" />
        </mxCell>
        <mxCell id="9piaaejg3JEfzZiYlQcQ-116" value="Конец" style="text;html=1;align=center;verticalAlign=middle;whiteSpace=wrap;rounded=0;" parent="1" vertex="1">
          <mxGeometry x="1310" y="1515.5" width="60" height="30" as="geometry" />
        </mxCell>
        <mxCell id="9piaaejg3JEfzZiYlQcQ-117" value="Нет" style="text;html=1;align=center;verticalAlign=middle;whiteSpace=wrap;rounded=0;" parent="1" vertex="1">
          <mxGeometry x="1338.28" y="1270" width="60" height="30" as="geometry" />
        </mxCell>
        <mxCell id="9piaaejg3JEfzZiYlQcQ-118" value="Да" style="text;html=1;align=center;verticalAlign=middle;whiteSpace=wrap;rounded=0;" parent="1" vertex="1">
          <mxGeometry x="1286.56" y="1320" width="60" height="30" as="geometry" />
        </mxCell>
        <mxCell id="9piaaejg3JEfzZiYlQcQ-119" value="Выбрать данные о категории" style="rounded=1;whiteSpace=wrap;html=1;" parent="1" vertex="1">
          <mxGeometry x="1240" y="1020" width="100" height="50" as="geometry" />
        </mxCell>
        <mxCell id="9piaaejg3JEfzZiYlQcQ-120" style="edgeStyle=orthogonalEdgeStyle;rounded=0;orthogonalLoop=1;jettySize=auto;html=1;entryX=0.5;entryY=0;entryDx=0;entryDy=0;" parent="1" source="9piaaejg3JEfzZiYlQcQ-121" target="9piaaejg3JEfzZiYlQcQ-123" edge="1">
          <mxGeometry relative="1" as="geometry" />
        </mxCell>
        <mxCell id="9piaaejg3JEfzZiYlQcQ-121" value="Нажать на кнопку&lt;div&gt;&quot;Редактировать&quot;&lt;/div&gt;" style="rounded=1;whiteSpace=wrap;html=1;" parent="1" vertex="1">
          <mxGeometry x="1240" y="1100" width="100" height="50" as="geometry" />
        </mxCell>
        <mxCell id="9piaaejg3JEfzZiYlQcQ-122" style="edgeStyle=orthogonalEdgeStyle;rounded=0;orthogonalLoop=1;jettySize=auto;html=1;entryX=0.5;entryY=0;entryDx=0;entryDy=0;" parent="1" source="9piaaejg3JEfzZiYlQcQ-123" target="9piaaejg3JEfzZiYlQcQ-107" edge="1">
          <mxGeometry relative="1" as="geometry" />
        </mxCell>
        <mxCell id="9piaaejg3JEfzZiYlQcQ-123" value="Ввести новые данные о категории" style="rounded=1;whiteSpace=wrap;html=1;" parent="1" vertex="1">
          <mxGeometry x="1240" y="1180" width="100" height="50" as="geometry" />
        </mxCell>
        <mxCell id="9piaaejg3JEfzZiYlQcQ-124" value="&lt;font style=&quot;font-size: 18px;&quot;&gt;Редактировать категории&lt;/font&gt;" style="text;html=1;align=center;verticalAlign=middle;whiteSpace=wrap;rounded=0;" parent="1" vertex="1">
          <mxGeometry x="1261.72" y="830" width="60" height="30" as="geometry" />
        </mxCell>
        <mxCell id="9piaaejg3JEfzZiYlQcQ-125" style="edgeStyle=orthogonalEdgeStyle;rounded=0;orthogonalLoop=1;jettySize=auto;html=1;entryX=0.5;entryY=0;entryDx=0;entryDy=0;" parent="1" source="9piaaejg3JEfzZiYlQcQ-126" target="9piaaejg3JEfzZiYlQcQ-128" edge="1">
          <mxGeometry relative="1" as="geometry" />
        </mxCell>
        <mxCell id="9piaaejg3JEfzZiYlQcQ-126" value="" style="ellipse;whiteSpace=wrap;html=1;aspect=fixed;" parent="1" vertex="1">
          <mxGeometry x="1696.75" y="870" width="40" height="40" as="geometry" />
        </mxCell>
        <mxCell id="9piaaejg3JEfzZiYlQcQ-127" style="edgeStyle=orthogonalEdgeStyle;rounded=0;orthogonalLoop=1;jettySize=auto;html=1;entryX=0.5;entryY=0;entryDx=0;entryDy=0;" parent="1" source="9piaaejg3JEfzZiYlQcQ-128" edge="1">
          <mxGeometry relative="1" as="geometry">
            <mxPoint x="1716.75" y="1020" as="targetPoint" />
          </mxGeometry>
        </mxCell>
        <mxCell id="9piaaejg3JEfzZiYlQcQ-128" value="Отрыть раздел&lt;div&gt;&quot;Просмотр категорий&quot;&lt;/div&gt;" style="rounded=1;whiteSpace=wrap;html=1;" parent="1" vertex="1">
          <mxGeometry x="1666.75" y="940" width="100" height="50" as="geometry" />
        </mxCell>
        <mxCell id="9piaaejg3JEfzZiYlQcQ-129" style="edgeStyle=orthogonalEdgeStyle;rounded=0;orthogonalLoop=1;jettySize=auto;html=1;" parent="1" edge="1">
          <mxGeometry relative="1" as="geometry">
            <mxPoint x="1716.75" y="1070" as="sourcePoint" />
            <mxPoint x="1716.75" y="1100" as="targetPoint" />
          </mxGeometry>
        </mxCell>
        <mxCell id="9piaaejg3JEfzZiYlQcQ-130" style="edgeStyle=orthogonalEdgeStyle;rounded=0;orthogonalLoop=1;jettySize=auto;html=1;entryX=0.5;entryY=0;entryDx=0;entryDy=0;" parent="1" source="9piaaejg3JEfzZiYlQcQ-131" target="9piaaejg3JEfzZiYlQcQ-132" edge="1">
          <mxGeometry relative="1" as="geometry" />
        </mxCell>
        <mxCell id="9piaaejg3JEfzZiYlQcQ-131" value="Обновление списка" style="rounded=1;whiteSpace=wrap;html=1;" parent="1" vertex="1">
          <mxGeometry x="1666.75" y="1440" width="100" height="50" as="geometry" />
        </mxCell>
        <mxCell id="9piaaejg3JEfzZiYlQcQ-132" value="" style="ellipse;whiteSpace=wrap;html=1;aspect=fixed;" parent="1" vertex="1">
          <mxGeometry x="1696.75" y="1530" width="40" height="40" as="geometry" />
        </mxCell>
        <mxCell id="9piaaejg3JEfzZiYlQcQ-133" value="Начало" style="text;html=1;align=center;verticalAlign=middle;whiteSpace=wrap;rounded=0;" parent="1" vertex="1">
          <mxGeometry x="1736.75" y="900" width="60" height="30" as="geometry" />
        </mxCell>
        <mxCell id="9piaaejg3JEfzZiYlQcQ-134" value="Конец" style="text;html=1;align=center;verticalAlign=middle;whiteSpace=wrap;rounded=0;" parent="1" vertex="1">
          <mxGeometry x="1735.03" y="1510" width="60" height="30" as="geometry" />
        </mxCell>
        <mxCell id="9piaaejg3JEfzZiYlQcQ-135" value="Нет" style="text;html=1;align=center;verticalAlign=middle;whiteSpace=wrap;rounded=0;" parent="1" vertex="1">
          <mxGeometry x="1775.03" y="1270" width="60" height="30" as="geometry" />
        </mxCell>
        <mxCell id="9piaaejg3JEfzZiYlQcQ-136" value="Да" style="text;html=1;align=center;verticalAlign=middle;whiteSpace=wrap;rounded=0;" parent="1" vertex="1">
          <mxGeometry x="1706.75" y="1320" width="60" height="30" as="geometry" />
        </mxCell>
        <mxCell id="9piaaejg3JEfzZiYlQcQ-137" value="Выбрать данные о категории" style="rounded=1;whiteSpace=wrap;html=1;" parent="1" vertex="1">
          <mxGeometry x="1666.75" y="1020" width="100" height="50" as="geometry" />
        </mxCell>
        <mxCell id="9piaaejg3JEfzZiYlQcQ-138" style="edgeStyle=orthogonalEdgeStyle;rounded=0;orthogonalLoop=1;jettySize=auto;html=1;entryX=0.5;entryY=0;entryDx=0;entryDy=0;" parent="1" source="9piaaejg3JEfzZiYlQcQ-139" edge="1">
          <mxGeometry relative="1" as="geometry">
            <mxPoint x="1716.75" y="1180" as="targetPoint" />
          </mxGeometry>
        </mxCell>
        <mxCell id="9piaaejg3JEfzZiYlQcQ-139" value="Нажать на кнопку&lt;div&gt;&quot;Удалить&quot;&lt;/div&gt;" style="rounded=1;whiteSpace=wrap;html=1;" parent="1" vertex="1">
          <mxGeometry x="1666.75" y="1100" width="100" height="50" as="geometry" />
        </mxCell>
        <mxCell id="9piaaejg3JEfzZiYlQcQ-140" style="edgeStyle=orthogonalEdgeStyle;rounded=0;orthogonalLoop=1;jettySize=auto;html=1;entryX=0.5;entryY=0;entryDx=0;entryDy=0;" parent="1" source="9piaaejg3JEfzZiYlQcQ-141" target="9piaaejg3JEfzZiYlQcQ-131" edge="1">
          <mxGeometry relative="1" as="geometry" />
        </mxCell>
        <mxCell id="9piaaejg3JEfzZiYlQcQ-141" value="Удаление категории из БД" style="rounded=1;whiteSpace=wrap;html=1;" parent="1" vertex="1">
          <mxGeometry x="1666.75" y="1360" width="100" height="50" as="geometry" />
        </mxCell>
        <mxCell id="9piaaejg3JEfzZiYlQcQ-142" style="edgeStyle=orthogonalEdgeStyle;rounded=0;orthogonalLoop=1;jettySize=auto;html=1;entryX=0.5;entryY=0;entryDx=0;entryDy=0;" parent="1" source="9piaaejg3JEfzZiYlQcQ-143" target="9piaaejg3JEfzZiYlQcQ-146" edge="1">
          <mxGeometry relative="1" as="geometry" />
        </mxCell>
        <mxCell id="9piaaejg3JEfzZiYlQcQ-143" value="Вывод окна&lt;br&gt;&quot;Удалить&amp;nbsp;&lt;div&gt;категорию?&quot;&lt;/div&gt;" style="shape=parallelogram;perimeter=parallelogramPerimeter;whiteSpace=wrap;html=1;fixedSize=1;" parent="1" vertex="1">
          <mxGeometry x="1656.75" y="1180" width="120" height="50" as="geometry" />
        </mxCell>
        <mxCell id="9piaaejg3JEfzZiYlQcQ-144" style="edgeStyle=orthogonalEdgeStyle;rounded=0;orthogonalLoop=1;jettySize=auto;html=1;entryX=0.5;entryY=0;entryDx=0;entryDy=0;" parent="1" source="9piaaejg3JEfzZiYlQcQ-146" target="9piaaejg3JEfzZiYlQcQ-141" edge="1">
          <mxGeometry relative="1" as="geometry" />
        </mxCell>
        <mxCell id="9piaaejg3JEfzZiYlQcQ-145" style="edgeStyle=orthogonalEdgeStyle;rounded=0;orthogonalLoop=1;jettySize=auto;html=1;" parent="1" source="9piaaejg3JEfzZiYlQcQ-146" edge="1">
          <mxGeometry relative="1" as="geometry">
            <mxPoint x="1716.75" y="1010" as="targetPoint" />
            <Array as="points">
              <mxPoint x="1867.75" y="1295" />
            </Array>
          </mxGeometry>
        </mxCell>
        <mxCell id="9piaaejg3JEfzZiYlQcQ-146" value="&lt;div&gt;&lt;br&gt;&lt;/div&gt;Вы уверены что хотите?" style="rhombus;whiteSpace=wrap;html=1;" parent="1" vertex="1">
          <mxGeometry x="1658.47" y="1260" width="116.56" height="70" as="geometry" />
        </mxCell>
        <mxCell id="9piaaejg3JEfzZiYlQcQ-147" value="&lt;span style=&quot;font-size: 18px;&quot;&gt;Удалить категории&lt;/span&gt;" style="text;html=1;align=center;verticalAlign=middle;whiteSpace=wrap;rounded=0;" parent="1" vertex="1">
          <mxGeometry x="1694" y="830" width="60" height="30" as="geometry" />
        </mxCell>
        <mxCell id="9piaaejg3JEfzZiYlQcQ-148" style="edgeStyle=orthogonalEdgeStyle;rounded=0;orthogonalLoop=1;jettySize=auto;html=1;entryX=0.5;entryY=0;entryDx=0;entryDy=0;" parent="1" source="9piaaejg3JEfzZiYlQcQ-149" target="9piaaejg3JEfzZiYlQcQ-151" edge="1">
          <mxGeometry relative="1" as="geometry" />
        </mxCell>
        <mxCell id="9piaaejg3JEfzZiYlQcQ-149" value="" style="ellipse;whiteSpace=wrap;html=1;aspect=fixed;" parent="1" vertex="1">
          <mxGeometry x="898.2800000000001" y="1620" width="40" height="40" as="geometry" />
        </mxCell>
        <mxCell id="9piaaejg3JEfzZiYlQcQ-150" style="edgeStyle=orthogonalEdgeStyle;rounded=0;orthogonalLoop=1;jettySize=auto;html=1;entryX=0.5;entryY=0;entryDx=0;entryDy=0;" parent="1" source="9piaaejg3JEfzZiYlQcQ-151" edge="1">
          <mxGeometry relative="1" as="geometry">
            <mxPoint x="918.2800000000001" y="1770" as="targetPoint" />
          </mxGeometry>
        </mxCell>
        <mxCell id="9piaaejg3JEfzZiYlQcQ-151" value="Отрыть раздел&lt;div&gt;&quot;Просмотр поставщиков&quot;&lt;/div&gt;" style="rounded=1;whiteSpace=wrap;html=1;" parent="1" vertex="1">
          <mxGeometry x="868.2800000000001" y="1690" width="100" height="50" as="geometry" />
        </mxCell>
        <mxCell id="9piaaejg3JEfzZiYlQcQ-152" style="edgeStyle=orthogonalEdgeStyle;rounded=0;orthogonalLoop=1;jettySize=auto;html=1;" parent="1" edge="1">
          <mxGeometry relative="1" as="geometry">
            <mxPoint x="918.2800000000001" y="1820" as="sourcePoint" />
            <mxPoint x="918.2800000000001" y="1850" as="targetPoint" />
          </mxGeometry>
        </mxCell>
        <mxCell id="9piaaejg3JEfzZiYlQcQ-153" style="edgeStyle=orthogonalEdgeStyle;rounded=0;orthogonalLoop=1;jettySize=auto;html=1;entryX=0.5;entryY=0;entryDx=0;entryDy=0;" parent="1" target="9piaaejg3JEfzZiYlQcQ-156" edge="1">
          <mxGeometry relative="1" as="geometry">
            <mxPoint x="918.2800000000001" y="1900" as="sourcePoint" />
          </mxGeometry>
        </mxCell>
        <mxCell id="9piaaejg3JEfzZiYlQcQ-154" style="edgeStyle=orthogonalEdgeStyle;rounded=0;orthogonalLoop=1;jettySize=auto;html=1;entryX=0.5;entryY=0;entryDx=0;entryDy=0;" parent="1" source="9piaaejg3JEfzZiYlQcQ-156" target="9piaaejg3JEfzZiYlQcQ-158" edge="1">
          <mxGeometry relative="1" as="geometry" />
        </mxCell>
        <mxCell id="9piaaejg3JEfzZiYlQcQ-155" style="edgeStyle=orthogonalEdgeStyle;rounded=0;orthogonalLoop=1;jettySize=auto;html=1;entryX=0.5;entryY=0;entryDx=0;entryDy=0;" parent="1" source="9piaaejg3JEfzZiYlQcQ-156" target="9piaaejg3JEfzZiYlQcQ-160" edge="1">
          <mxGeometry relative="1" as="geometry" />
        </mxCell>
        <mxCell id="9piaaejg3JEfzZiYlQcQ-156" value="Данные&amp;nbsp;&lt;div&gt;корректны?&lt;/div&gt;" style="rhombus;whiteSpace=wrap;html=1;" parent="1" vertex="1">
          <mxGeometry x="860.0000000000001" y="1930" width="116.56" height="70" as="geometry" />
        </mxCell>
        <mxCell id="9piaaejg3JEfzZiYlQcQ-157" style="edgeStyle=orthogonalEdgeStyle;rounded=0;orthogonalLoop=1;jettySize=auto;html=1;" parent="1" source="9piaaejg3JEfzZiYlQcQ-158" edge="1">
          <mxGeometry relative="1" as="geometry">
            <mxPoint x="918.2800000000001" y="1760" as="targetPoint" />
            <Array as="points">
              <mxPoint x="1048.28" y="2150" />
              <mxPoint x="1128.28" y="2150" />
              <mxPoint x="1128.28" y="1760" />
            </Array>
          </mxGeometry>
        </mxCell>
        <mxCell id="9piaaejg3JEfzZiYlQcQ-158" value="Вывод окна&lt;br&gt;&quot;Данные некорректны&quot;" style="shape=parallelogram;perimeter=parallelogramPerimeter;whiteSpace=wrap;html=1;fixedSize=1;" parent="1" vertex="1">
          <mxGeometry x="988.2800000000001" y="2030" width="120" height="50" as="geometry" />
        </mxCell>
        <mxCell id="9piaaejg3JEfzZiYlQcQ-159" style="edgeStyle=orthogonalEdgeStyle;rounded=0;orthogonalLoop=1;jettySize=auto;html=1;entryX=0.5;entryY=0;entryDx=0;entryDy=0;" parent="1" source="9piaaejg3JEfzZiYlQcQ-160" target="9piaaejg3JEfzZiYlQcQ-162" edge="1">
          <mxGeometry relative="1" as="geometry" />
        </mxCell>
        <mxCell id="9piaaejg3JEfzZiYlQcQ-160" value="Генерация ID поставщика" style="rounded=1;whiteSpace=wrap;html=1;" parent="1" vertex="1">
          <mxGeometry x="868.2800000000001" y="2030" width="100" height="50" as="geometry" />
        </mxCell>
        <mxCell id="9piaaejg3JEfzZiYlQcQ-161" style="edgeStyle=orthogonalEdgeStyle;rounded=0;orthogonalLoop=1;jettySize=auto;html=1;entryX=0.5;entryY=0;entryDx=0;entryDy=0;" parent="1" source="9piaaejg3JEfzZiYlQcQ-162" target="9piaaejg3JEfzZiYlQcQ-164" edge="1">
          <mxGeometry relative="1" as="geometry" />
        </mxCell>
        <mxCell id="9piaaejg3JEfzZiYlQcQ-162" value="Сохранение данных о поставщике в БД" style="rounded=1;whiteSpace=wrap;html=1;" parent="1" vertex="1">
          <mxGeometry x="868.2800000000001" y="2114.5" width="100" height="50" as="geometry" />
        </mxCell>
        <mxCell id="9piaaejg3JEfzZiYlQcQ-163" style="edgeStyle=orthogonalEdgeStyle;rounded=0;orthogonalLoop=1;jettySize=auto;html=1;entryX=0.5;entryY=0;entryDx=0;entryDy=0;" parent="1" source="9piaaejg3JEfzZiYlQcQ-164" target="9piaaejg3JEfzZiYlQcQ-165" edge="1">
          <mxGeometry relative="1" as="geometry" />
        </mxCell>
        <mxCell id="9piaaejg3JEfzZiYlQcQ-164" value="Обновление каталога" style="rounded=1;whiteSpace=wrap;html=1;" parent="1" vertex="1">
          <mxGeometry x="868.2800000000001" y="2200" width="100" height="50" as="geometry" />
        </mxCell>
        <mxCell id="9piaaejg3JEfzZiYlQcQ-165" value="" style="ellipse;whiteSpace=wrap;html=1;aspect=fixed;" parent="1" vertex="1">
          <mxGeometry x="898.2800000000001" y="2290" width="40" height="40" as="geometry" />
        </mxCell>
        <mxCell id="9piaaejg3JEfzZiYlQcQ-166" value="Начало" style="text;html=1;align=center;verticalAlign=middle;whiteSpace=wrap;rounded=0;" parent="1" vertex="1">
          <mxGeometry x="938.2800000000001" y="1650" width="60" height="30" as="geometry" />
        </mxCell>
        <mxCell id="9piaaejg3JEfzZiYlQcQ-167" value="Конец" style="text;html=1;align=center;verticalAlign=middle;whiteSpace=wrap;rounded=0;" parent="1" vertex="1">
          <mxGeometry x="938.2800000000001" y="2270" width="60" height="30" as="geometry" />
        </mxCell>
        <mxCell id="9piaaejg3JEfzZiYlQcQ-168" value="Нет" style="text;html=1;align=center;verticalAlign=middle;whiteSpace=wrap;rounded=0;" parent="1" vertex="1">
          <mxGeometry x="968.2800000000001" y="1940" width="60" height="30" as="geometry" />
        </mxCell>
        <mxCell id="9piaaejg3JEfzZiYlQcQ-169" value="Да" style="text;html=1;align=center;verticalAlign=middle;whiteSpace=wrap;rounded=0;" parent="1" vertex="1">
          <mxGeometry x="916.5600000000001" y="1990" width="60" height="30" as="geometry" />
        </mxCell>
        <mxCell id="9piaaejg3JEfzZiYlQcQ-170" value="Вести данные о поставщике" style="rounded=1;whiteSpace=wrap;html=1;" parent="1" vertex="1">
          <mxGeometry x="868.2800000000001" y="1770" width="100" height="50" as="geometry" />
        </mxCell>
        <mxCell id="9piaaejg3JEfzZiYlQcQ-171" value="Нажать на кнопку&lt;div&gt;&quot;Добавить&quot;&lt;/div&gt;" style="rounded=1;whiteSpace=wrap;html=1;" parent="1" vertex="1">
          <mxGeometry x="868.2800000000001" y="1850" width="100" height="50" as="geometry" />
        </mxCell>
        <mxCell id="9piaaejg3JEfzZiYlQcQ-196" value="&lt;font style=&quot;font-size: 18px;&quot;&gt;Добавить поставщика&lt;/font&gt;" style="text;html=1;align=center;verticalAlign=middle;whiteSpace=wrap;rounded=0;" parent="1" vertex="1">
          <mxGeometry x="898.28" y="1590" width="60" height="30" as="geometry" />
        </mxCell>
        <mxCell id="9piaaejg3JEfzZiYlQcQ-197" style="edgeStyle=orthogonalEdgeStyle;rounded=0;orthogonalLoop=1;jettySize=auto;html=1;entryX=0.5;entryY=0;entryDx=0;entryDy=0;" parent="1" source="9piaaejg3JEfzZiYlQcQ-198" target="9piaaejg3JEfzZiYlQcQ-200" edge="1">
          <mxGeometry relative="1" as="geometry" />
        </mxCell>
        <mxCell id="9piaaejg3JEfzZiYlQcQ-198" value="" style="ellipse;whiteSpace=wrap;html=1;aspect=fixed;" parent="1" vertex="1">
          <mxGeometry x="1272.44" y="1624.5" width="40" height="40" as="geometry" />
        </mxCell>
        <mxCell id="9piaaejg3JEfzZiYlQcQ-199" style="edgeStyle=orthogonalEdgeStyle;rounded=0;orthogonalLoop=1;jettySize=auto;html=1;entryX=0.5;entryY=0;entryDx=0;entryDy=0;" parent="1" source="9piaaejg3JEfzZiYlQcQ-200" edge="1">
          <mxGeometry relative="1" as="geometry">
            <mxPoint x="1292.44" y="1774.5" as="targetPoint" />
          </mxGeometry>
        </mxCell>
        <mxCell id="9piaaejg3JEfzZiYlQcQ-200" value="Отрыть раздел&lt;div&gt;&quot;Просмотр поставщиков&quot;&lt;/div&gt;" style="rounded=1;whiteSpace=wrap;html=1;" parent="1" vertex="1">
          <mxGeometry x="1242.44" y="1694.5" width="100" height="50" as="geometry" />
        </mxCell>
        <mxCell id="9piaaejg3JEfzZiYlQcQ-201" style="edgeStyle=orthogonalEdgeStyle;rounded=0;orthogonalLoop=1;jettySize=auto;html=1;" parent="1" edge="1">
          <mxGeometry relative="1" as="geometry">
            <mxPoint x="1292.44" y="1824.5" as="sourcePoint" />
            <mxPoint x="1292.44" y="1854.5" as="targetPoint" />
          </mxGeometry>
        </mxCell>
        <mxCell id="9piaaejg3JEfzZiYlQcQ-202" style="edgeStyle=orthogonalEdgeStyle;rounded=0;orthogonalLoop=1;jettySize=auto;html=1;entryX=0.5;entryY=0;entryDx=0;entryDy=0;" parent="1" source="9piaaejg3JEfzZiYlQcQ-204" target="9piaaejg3JEfzZiYlQcQ-206" edge="1">
          <mxGeometry relative="1" as="geometry" />
        </mxCell>
        <mxCell id="9piaaejg3JEfzZiYlQcQ-203" style="edgeStyle=orthogonalEdgeStyle;rounded=0;orthogonalLoop=1;jettySize=auto;html=1;entryX=0.5;entryY=0;entryDx=0;entryDy=0;" parent="1" source="9piaaejg3JEfzZiYlQcQ-204" edge="1">
          <mxGeometry relative="1" as="geometry">
            <mxPoint x="1292.44" y="2114.5" as="targetPoint" />
          </mxGeometry>
        </mxCell>
        <mxCell id="9piaaejg3JEfzZiYlQcQ-204" value="Данные&amp;nbsp;&lt;div&gt;корректны?&lt;/div&gt;" style="rhombus;whiteSpace=wrap;html=1;" parent="1" vertex="1">
          <mxGeometry x="1234.16" y="2014.5" width="116.56" height="70" as="geometry" />
        </mxCell>
        <mxCell id="9piaaejg3JEfzZiYlQcQ-205" style="edgeStyle=orthogonalEdgeStyle;rounded=0;orthogonalLoop=1;jettySize=auto;html=1;" parent="1" source="9piaaejg3JEfzZiYlQcQ-206" edge="1">
          <mxGeometry relative="1" as="geometry">
            <mxPoint x="1292.44" y="1764.5" as="targetPoint" />
            <Array as="points">
              <mxPoint x="1420.44" y="2224.5" />
              <mxPoint x="1502.44" y="2224.5" />
              <mxPoint x="1502.44" y="1764.5" />
            </Array>
          </mxGeometry>
        </mxCell>
        <mxCell id="9piaaejg3JEfzZiYlQcQ-206" value="Вывод окна&lt;br&gt;&quot;Данные некорректны&quot;" style="shape=parallelogram;perimeter=parallelogramPerimeter;whiteSpace=wrap;html=1;fixedSize=1;" parent="1" vertex="1">
          <mxGeometry x="1360.72" y="2114.5" width="120" height="50" as="geometry" />
        </mxCell>
        <mxCell id="9piaaejg3JEfzZiYlQcQ-207" style="edgeStyle=orthogonalEdgeStyle;rounded=0;orthogonalLoop=1;jettySize=auto;html=1;entryX=0.5;entryY=0;entryDx=0;entryDy=0;" parent="1" source="9piaaejg3JEfzZiYlQcQ-208" target="9piaaejg3JEfzZiYlQcQ-210" edge="1">
          <mxGeometry relative="1" as="geometry" />
        </mxCell>
        <mxCell id="9piaaejg3JEfzZiYlQcQ-208" value="Сохранение данных о поставщике в БД" style="rounded=1;whiteSpace=wrap;html=1;" parent="1" vertex="1">
          <mxGeometry x="1244.16" y="2114.5" width="100" height="50" as="geometry" />
        </mxCell>
        <mxCell id="9piaaejg3JEfzZiYlQcQ-209" style="edgeStyle=orthogonalEdgeStyle;rounded=0;orthogonalLoop=1;jettySize=auto;html=1;entryX=0.5;entryY=0;entryDx=0;entryDy=0;" parent="1" source="9piaaejg3JEfzZiYlQcQ-210" target="9piaaejg3JEfzZiYlQcQ-211" edge="1">
          <mxGeometry relative="1" as="geometry" />
        </mxCell>
        <mxCell id="9piaaejg3JEfzZiYlQcQ-210" value="Обновление каталога" style="rounded=1;whiteSpace=wrap;html=1;" parent="1" vertex="1">
          <mxGeometry x="1244.16" y="2200" width="100" height="50" as="geometry" />
        </mxCell>
        <mxCell id="9piaaejg3JEfzZiYlQcQ-211" value="" style="ellipse;whiteSpace=wrap;html=1;aspect=fixed;" parent="1" vertex="1">
          <mxGeometry x="1274.16" y="2290" width="40" height="40" as="geometry" />
        </mxCell>
        <mxCell id="9piaaejg3JEfzZiYlQcQ-212" value="Начало" style="text;html=1;align=center;verticalAlign=middle;whiteSpace=wrap;rounded=0;" parent="1" vertex="1">
          <mxGeometry x="1312.44" y="1654.5" width="60" height="30" as="geometry" />
        </mxCell>
        <mxCell id="9piaaejg3JEfzZiYlQcQ-213" value="Конец" style="text;html=1;align=center;verticalAlign=middle;whiteSpace=wrap;rounded=0;" parent="1" vertex="1">
          <mxGeometry x="1312.44" y="2270" width="60" height="30" as="geometry" />
        </mxCell>
        <mxCell id="9piaaejg3JEfzZiYlQcQ-214" value="Нет" style="text;html=1;align=center;verticalAlign=middle;whiteSpace=wrap;rounded=0;" parent="1" vertex="1">
          <mxGeometry x="1340.72" y="2024.5" width="60" height="30" as="geometry" />
        </mxCell>
        <mxCell id="9piaaejg3JEfzZiYlQcQ-215" value="Да" style="text;html=1;align=center;verticalAlign=middle;whiteSpace=wrap;rounded=0;" parent="1" vertex="1">
          <mxGeometry x="1289" y="2074.5" width="60" height="30" as="geometry" />
        </mxCell>
        <mxCell id="9piaaejg3JEfzZiYlQcQ-216" value="Выбрать данные о поставщике" style="rounded=1;whiteSpace=wrap;html=1;" parent="1" vertex="1">
          <mxGeometry x="1242.44" y="1774.5" width="100" height="50" as="geometry" />
        </mxCell>
        <mxCell id="9piaaejg3JEfzZiYlQcQ-217" style="edgeStyle=orthogonalEdgeStyle;rounded=0;orthogonalLoop=1;jettySize=auto;html=1;entryX=0.5;entryY=0;entryDx=0;entryDy=0;" parent="1" source="9piaaejg3JEfzZiYlQcQ-218" target="9piaaejg3JEfzZiYlQcQ-220" edge="1">
          <mxGeometry relative="1" as="geometry" />
        </mxCell>
        <mxCell id="9piaaejg3JEfzZiYlQcQ-218" value="Нажать на кнопку&lt;div&gt;&quot;Редактировать&quot;&lt;/div&gt;" style="rounded=1;whiteSpace=wrap;html=1;" parent="1" vertex="1">
          <mxGeometry x="1242.44" y="1854.5" width="100" height="50" as="geometry" />
        </mxCell>
        <mxCell id="9piaaejg3JEfzZiYlQcQ-219" style="edgeStyle=orthogonalEdgeStyle;rounded=0;orthogonalLoop=1;jettySize=auto;html=1;entryX=0.5;entryY=0;entryDx=0;entryDy=0;" parent="1" source="9piaaejg3JEfzZiYlQcQ-220" target="9piaaejg3JEfzZiYlQcQ-204" edge="1">
          <mxGeometry relative="1" as="geometry" />
        </mxCell>
        <mxCell id="9piaaejg3JEfzZiYlQcQ-220" value="Ввести новые данные о поставщике" style="rounded=1;whiteSpace=wrap;html=1;" parent="1" vertex="1">
          <mxGeometry x="1242.44" y="1934.5" width="100" height="50" as="geometry" />
        </mxCell>
        <mxCell id="9piaaejg3JEfzZiYlQcQ-221" value="&lt;font style=&quot;font-size: 18px;&quot;&gt;Редактировать поставщика&lt;/font&gt;" style="text;html=1;align=center;verticalAlign=middle;whiteSpace=wrap;rounded=0;" parent="1" vertex="1">
          <mxGeometry x="1269.9999999999998" y="1590" width="60" height="30" as="geometry" />
        </mxCell>
        <mxCell id="9piaaejg3JEfzZiYlQcQ-222" style="edgeStyle=orthogonalEdgeStyle;rounded=0;orthogonalLoop=1;jettySize=auto;html=1;entryX=0.5;entryY=0;entryDx=0;entryDy=0;" parent="1" source="9piaaejg3JEfzZiYlQcQ-223" target="9piaaejg3JEfzZiYlQcQ-225" edge="1">
          <mxGeometry relative="1" as="geometry" />
        </mxCell>
        <mxCell id="9piaaejg3JEfzZiYlQcQ-223" value="" style="ellipse;whiteSpace=wrap;html=1;aspect=fixed;" parent="1" vertex="1">
          <mxGeometry x="1696.75" y="1630" width="40" height="40" as="geometry" />
        </mxCell>
        <mxCell id="9piaaejg3JEfzZiYlQcQ-224" style="edgeStyle=orthogonalEdgeStyle;rounded=0;orthogonalLoop=1;jettySize=auto;html=1;entryX=0.5;entryY=0;entryDx=0;entryDy=0;" parent="1" source="9piaaejg3JEfzZiYlQcQ-225" edge="1">
          <mxGeometry relative="1" as="geometry">
            <mxPoint x="1716.75" y="1780" as="targetPoint" />
          </mxGeometry>
        </mxCell>
        <mxCell id="9piaaejg3JEfzZiYlQcQ-225" value="Отрыть раздел&lt;div&gt;&quot;Просмотр поставщиков&quot;&lt;/div&gt;" style="rounded=1;whiteSpace=wrap;html=1;" parent="1" vertex="1">
          <mxGeometry x="1666.75" y="1700" width="100" height="50" as="geometry" />
        </mxCell>
        <mxCell id="9piaaejg3JEfzZiYlQcQ-226" style="edgeStyle=orthogonalEdgeStyle;rounded=0;orthogonalLoop=1;jettySize=auto;html=1;" parent="1" edge="1">
          <mxGeometry relative="1" as="geometry">
            <mxPoint x="1716.75" y="1830" as="sourcePoint" />
            <mxPoint x="1716.75" y="1860" as="targetPoint" />
          </mxGeometry>
        </mxCell>
        <mxCell id="9piaaejg3JEfzZiYlQcQ-227" style="edgeStyle=orthogonalEdgeStyle;rounded=0;orthogonalLoop=1;jettySize=auto;html=1;entryX=0.5;entryY=0;entryDx=0;entryDy=0;" parent="1" source="9piaaejg3JEfzZiYlQcQ-228" target="9piaaejg3JEfzZiYlQcQ-229" edge="1">
          <mxGeometry relative="1" as="geometry" />
        </mxCell>
        <mxCell id="9piaaejg3JEfzZiYlQcQ-228" value="Обновление списка" style="rounded=1;whiteSpace=wrap;html=1;" parent="1" vertex="1">
          <mxGeometry x="1666.75" y="2200" width="100" height="50" as="geometry" />
        </mxCell>
        <mxCell id="9piaaejg3JEfzZiYlQcQ-229" value="" style="ellipse;whiteSpace=wrap;html=1;aspect=fixed;" parent="1" vertex="1">
          <mxGeometry x="1696.75" y="2290" width="40" height="40" as="geometry" />
        </mxCell>
        <mxCell id="9piaaejg3JEfzZiYlQcQ-230" value="Начало" style="text;html=1;align=center;verticalAlign=middle;whiteSpace=wrap;rounded=0;" parent="1" vertex="1">
          <mxGeometry x="1736.75" y="1660" width="60" height="30" as="geometry" />
        </mxCell>
        <mxCell id="9piaaejg3JEfzZiYlQcQ-231" value="Конец" style="text;html=1;align=center;verticalAlign=middle;whiteSpace=wrap;rounded=0;" parent="1" vertex="1">
          <mxGeometry x="1735.0300000000002" y="2270" width="60" height="30" as="geometry" />
        </mxCell>
        <mxCell id="9piaaejg3JEfzZiYlQcQ-232" value="Нет" style="text;html=1;align=center;verticalAlign=middle;whiteSpace=wrap;rounded=0;" parent="1" vertex="1">
          <mxGeometry x="1775.0300000000002" y="2030" width="60" height="30" as="geometry" />
        </mxCell>
        <mxCell id="9piaaejg3JEfzZiYlQcQ-233" value="Да" style="text;html=1;align=center;verticalAlign=middle;whiteSpace=wrap;rounded=0;" parent="1" vertex="1">
          <mxGeometry x="1706.75" y="2080" width="60" height="30" as="geometry" />
        </mxCell>
        <mxCell id="9piaaejg3JEfzZiYlQcQ-234" value="Выбрать данные о категории" style="rounded=1;whiteSpace=wrap;html=1;" parent="1" vertex="1">
          <mxGeometry x="1666.75" y="1780" width="100" height="50" as="geometry" />
        </mxCell>
        <mxCell id="9piaaejg3JEfzZiYlQcQ-235" style="edgeStyle=orthogonalEdgeStyle;rounded=0;orthogonalLoop=1;jettySize=auto;html=1;entryX=0.5;entryY=0;entryDx=0;entryDy=0;" parent="1" source="9piaaejg3JEfzZiYlQcQ-236" edge="1">
          <mxGeometry relative="1" as="geometry">
            <mxPoint x="1716.75" y="1940" as="targetPoint" />
          </mxGeometry>
        </mxCell>
        <mxCell id="9piaaejg3JEfzZiYlQcQ-236" value="Нажать на кнопку&lt;div&gt;&quot;Удалить&quot;&lt;/div&gt;" style="rounded=1;whiteSpace=wrap;html=1;" parent="1" vertex="1">
          <mxGeometry x="1666.75" y="1860" width="100" height="50" as="geometry" />
        </mxCell>
        <mxCell id="9piaaejg3JEfzZiYlQcQ-237" style="edgeStyle=orthogonalEdgeStyle;rounded=0;orthogonalLoop=1;jettySize=auto;html=1;entryX=0.5;entryY=0;entryDx=0;entryDy=0;" parent="1" source="9piaaejg3JEfzZiYlQcQ-238" target="9piaaejg3JEfzZiYlQcQ-228" edge="1">
          <mxGeometry relative="1" as="geometry" />
        </mxCell>
        <mxCell id="9piaaejg3JEfzZiYlQcQ-238" value="Удаление категории из БД" style="rounded=1;whiteSpace=wrap;html=1;" parent="1" vertex="1">
          <mxGeometry x="1666.75" y="2120" width="100" height="50" as="geometry" />
        </mxCell>
        <mxCell id="9piaaejg3JEfzZiYlQcQ-239" style="edgeStyle=orthogonalEdgeStyle;rounded=0;orthogonalLoop=1;jettySize=auto;html=1;entryX=0.5;entryY=0;entryDx=0;entryDy=0;" parent="1" source="9piaaejg3JEfzZiYlQcQ-240" target="9piaaejg3JEfzZiYlQcQ-243" edge="1">
          <mxGeometry relative="1" as="geometry" />
        </mxCell>
        <mxCell id="9piaaejg3JEfzZiYlQcQ-240" value="Вывод окна&lt;br&gt;&quot;Удалить&amp;nbsp;&lt;div&gt;поставщика?&quot;&lt;/div&gt;" style="shape=parallelogram;perimeter=parallelogramPerimeter;whiteSpace=wrap;html=1;fixedSize=1;" parent="1" vertex="1">
          <mxGeometry x="1656.75" y="1940" width="120" height="50" as="geometry" />
        </mxCell>
        <mxCell id="9piaaejg3JEfzZiYlQcQ-241" style="edgeStyle=orthogonalEdgeStyle;rounded=0;orthogonalLoop=1;jettySize=auto;html=1;entryX=0.5;entryY=0;entryDx=0;entryDy=0;" parent="1" source="9piaaejg3JEfzZiYlQcQ-243" target="9piaaejg3JEfzZiYlQcQ-238" edge="1">
          <mxGeometry relative="1" as="geometry" />
        </mxCell>
        <mxCell id="9piaaejg3JEfzZiYlQcQ-242" style="edgeStyle=orthogonalEdgeStyle;rounded=0;orthogonalLoop=1;jettySize=auto;html=1;" parent="1" source="9piaaejg3JEfzZiYlQcQ-243" edge="1">
          <mxGeometry relative="1" as="geometry">
            <mxPoint x="1716.75" y="1770" as="targetPoint" />
            <Array as="points">
              <mxPoint x="1867.75" y="2055" />
            </Array>
          </mxGeometry>
        </mxCell>
        <mxCell id="9piaaejg3JEfzZiYlQcQ-243" value="&lt;div&gt;&lt;br&gt;&lt;/div&gt;Вы уверены что хотите?" style="rhombus;whiteSpace=wrap;html=1;" parent="1" vertex="1">
          <mxGeometry x="1658.4700000000003" y="2020" width="116.56" height="70" as="geometry" />
        </mxCell>
        <mxCell id="9piaaejg3JEfzZiYlQcQ-244" value="&lt;font style=&quot;font-size: 18px;&quot;&gt;Удалить поставщика&lt;/font&gt;" style="text;html=1;align=center;verticalAlign=middle;whiteSpace=wrap;rounded=0;" parent="1" vertex="1">
          <mxGeometry x="1686.7499999999998" y="1590" width="60" height="30" as="geometry" />
        </mxCell>
        <mxCell id="9piaaejg3JEfzZiYlQcQ-269" style="edgeStyle=orthogonalEdgeStyle;rounded=0;orthogonalLoop=1;jettySize=auto;html=1;entryX=0.5;entryY=0;entryDx=0;entryDy=0;" parent="1" source="9piaaejg3JEfzZiYlQcQ-270" target="9piaaejg3JEfzZiYlQcQ-272" edge="1">
          <mxGeometry relative="1" as="geometry" />
        </mxCell>
        <mxCell id="9piaaejg3JEfzZiYlQcQ-270" value="" style="ellipse;whiteSpace=wrap;html=1;aspect=fixed;" parent="1" vertex="1">
          <mxGeometry x="898.28" y="2370" width="40" height="40" as="geometry" />
        </mxCell>
        <mxCell id="9piaaejg3JEfzZiYlQcQ-271" style="edgeStyle=orthogonalEdgeStyle;rounded=0;orthogonalLoop=1;jettySize=auto;html=1;entryX=0.5;entryY=0;entryDx=0;entryDy=0;" parent="1" source="9piaaejg3JEfzZiYlQcQ-272" edge="1">
          <mxGeometry relative="1" as="geometry">
            <mxPoint x="918.28" y="2520" as="targetPoint" />
          </mxGeometry>
        </mxCell>
        <mxCell id="9piaaejg3JEfzZiYlQcQ-272" value="Отрыть раздел&lt;div&gt;&quot;Просмотр пользователей&quot;&lt;/div&gt;" style="rounded=1;whiteSpace=wrap;html=1;" parent="1" vertex="1">
          <mxGeometry x="868.28" y="2440" width="100" height="50" as="geometry" />
        </mxCell>
        <mxCell id="9piaaejg3JEfzZiYlQcQ-273" style="edgeStyle=orthogonalEdgeStyle;rounded=0;orthogonalLoop=1;jettySize=auto;html=1;" parent="1" edge="1">
          <mxGeometry relative="1" as="geometry">
            <mxPoint x="918.28" y="2570" as="sourcePoint" />
            <mxPoint x="918.28" y="2600" as="targetPoint" />
          </mxGeometry>
        </mxCell>
        <mxCell id="9piaaejg3JEfzZiYlQcQ-274" style="edgeStyle=orthogonalEdgeStyle;rounded=0;orthogonalLoop=1;jettySize=auto;html=1;entryX=0.5;entryY=0;entryDx=0;entryDy=0;" parent="1" target="9piaaejg3JEfzZiYlQcQ-277" edge="1">
          <mxGeometry relative="1" as="geometry">
            <mxPoint x="918.28" y="2650" as="sourcePoint" />
          </mxGeometry>
        </mxCell>
        <mxCell id="9piaaejg3JEfzZiYlQcQ-275" style="edgeStyle=orthogonalEdgeStyle;rounded=0;orthogonalLoop=1;jettySize=auto;html=1;entryX=0.5;entryY=0;entryDx=0;entryDy=0;" parent="1" source="9piaaejg3JEfzZiYlQcQ-277" target="9piaaejg3JEfzZiYlQcQ-279" edge="1">
          <mxGeometry relative="1" as="geometry" />
        </mxCell>
        <mxCell id="9piaaejg3JEfzZiYlQcQ-276" style="edgeStyle=orthogonalEdgeStyle;rounded=0;orthogonalLoop=1;jettySize=auto;html=1;entryX=0.5;entryY=0;entryDx=0;entryDy=0;" parent="1" source="9piaaejg3JEfzZiYlQcQ-277" target="9piaaejg3JEfzZiYlQcQ-281" edge="1">
          <mxGeometry relative="1" as="geometry" />
        </mxCell>
        <mxCell id="9piaaejg3JEfzZiYlQcQ-277" value="Данные&amp;nbsp;&lt;div&gt;корректны?&lt;/div&gt;" style="rhombus;whiteSpace=wrap;html=1;" parent="1" vertex="1">
          <mxGeometry x="860" y="2680" width="116.56" height="70" as="geometry" />
        </mxCell>
        <mxCell id="9piaaejg3JEfzZiYlQcQ-278" style="edgeStyle=orthogonalEdgeStyle;rounded=0;orthogonalLoop=1;jettySize=auto;html=1;" parent="1" source="9piaaejg3JEfzZiYlQcQ-279" edge="1">
          <mxGeometry relative="1" as="geometry">
            <mxPoint x="918.28" y="2510" as="targetPoint" />
            <Array as="points">
              <mxPoint x="1048.28" y="2900" />
              <mxPoint x="1128.28" y="2900" />
              <mxPoint x="1128.28" y="2510" />
            </Array>
          </mxGeometry>
        </mxCell>
        <mxCell id="9piaaejg3JEfzZiYlQcQ-279" value="Вывод окна&lt;br&gt;&quot;Данные некорректны&quot;" style="shape=parallelogram;perimeter=parallelogramPerimeter;whiteSpace=wrap;html=1;fixedSize=1;" parent="1" vertex="1">
          <mxGeometry x="988.28" y="2780" width="120" height="50" as="geometry" />
        </mxCell>
        <mxCell id="9piaaejg3JEfzZiYlQcQ-280" style="edgeStyle=orthogonalEdgeStyle;rounded=0;orthogonalLoop=1;jettySize=auto;html=1;entryX=0.5;entryY=0;entryDx=0;entryDy=0;" parent="1" source="9piaaejg3JEfzZiYlQcQ-281" target="9piaaejg3JEfzZiYlQcQ-283" edge="1">
          <mxGeometry relative="1" as="geometry" />
        </mxCell>
        <mxCell id="9piaaejg3JEfzZiYlQcQ-281" value="Генерация ID пользователя" style="rounded=1;whiteSpace=wrap;html=1;" parent="1" vertex="1">
          <mxGeometry x="868.28" y="2780" width="100" height="50" as="geometry" />
        </mxCell>
        <mxCell id="9piaaejg3JEfzZiYlQcQ-282" style="edgeStyle=orthogonalEdgeStyle;rounded=0;orthogonalLoop=1;jettySize=auto;html=1;entryX=0.5;entryY=0;entryDx=0;entryDy=0;" parent="1" source="9piaaejg3JEfzZiYlQcQ-283" target="9piaaejg3JEfzZiYlQcQ-285" edge="1">
          <mxGeometry relative="1" as="geometry" />
        </mxCell>
        <mxCell id="9piaaejg3JEfzZiYlQcQ-283" value="Сохранение данных о пользователе в БД" style="rounded=1;whiteSpace=wrap;html=1;" parent="1" vertex="1">
          <mxGeometry x="868.28" y="2864.5" width="100" height="50" as="geometry" />
        </mxCell>
        <mxCell id="9piaaejg3JEfzZiYlQcQ-284" style="edgeStyle=orthogonalEdgeStyle;rounded=0;orthogonalLoop=1;jettySize=auto;html=1;entryX=0.5;entryY=0;entryDx=0;entryDy=0;" parent="1" source="9piaaejg3JEfzZiYlQcQ-285" target="9piaaejg3JEfzZiYlQcQ-286" edge="1">
          <mxGeometry relative="1" as="geometry" />
        </mxCell>
        <mxCell id="9piaaejg3JEfzZiYlQcQ-285" value="Обновление каталога" style="rounded=1;whiteSpace=wrap;html=1;" parent="1" vertex="1">
          <mxGeometry x="868.28" y="2950" width="100" height="50" as="geometry" />
        </mxCell>
        <mxCell id="9piaaejg3JEfzZiYlQcQ-286" value="" style="ellipse;whiteSpace=wrap;html=1;aspect=fixed;" parent="1" vertex="1">
          <mxGeometry x="898.28" y="3040" width="40" height="40" as="geometry" />
        </mxCell>
        <mxCell id="9piaaejg3JEfzZiYlQcQ-287" value="Начало" style="text;html=1;align=center;verticalAlign=middle;whiteSpace=wrap;rounded=0;" parent="1" vertex="1">
          <mxGeometry x="938.28" y="2400" width="60" height="30" as="geometry" />
        </mxCell>
        <mxCell id="9piaaejg3JEfzZiYlQcQ-288" value="Конец" style="text;html=1;align=center;verticalAlign=middle;whiteSpace=wrap;rounded=0;" parent="1" vertex="1">
          <mxGeometry x="938.28" y="3020" width="60" height="30" as="geometry" />
        </mxCell>
        <mxCell id="9piaaejg3JEfzZiYlQcQ-289" value="Нет" style="text;html=1;align=center;verticalAlign=middle;whiteSpace=wrap;rounded=0;" parent="1" vertex="1">
          <mxGeometry x="968.28" y="2690" width="60" height="30" as="geometry" />
        </mxCell>
        <mxCell id="9piaaejg3JEfzZiYlQcQ-290" value="Да" style="text;html=1;align=center;verticalAlign=middle;whiteSpace=wrap;rounded=0;" parent="1" vertex="1">
          <mxGeometry x="916.56" y="2740" width="60" height="30" as="geometry" />
        </mxCell>
        <mxCell id="9piaaejg3JEfzZiYlQcQ-291" value="Вести данные о пользователе" style="rounded=1;whiteSpace=wrap;html=1;" parent="1" vertex="1">
          <mxGeometry x="868.28" y="2520" width="100" height="50" as="geometry" />
        </mxCell>
        <mxCell id="9piaaejg3JEfzZiYlQcQ-292" value="Нажать на кнопку&lt;div&gt;&quot;Добавить&quot;&lt;/div&gt;" style="rounded=1;whiteSpace=wrap;html=1;" parent="1" vertex="1">
          <mxGeometry x="868.28" y="2600" width="100" height="50" as="geometry" />
        </mxCell>
        <mxCell id="9piaaejg3JEfzZiYlQcQ-293" value="&lt;font style=&quot;font-size: 18px;&quot;&gt;Добавить пользователя&lt;/font&gt;" style="text;html=1;align=center;verticalAlign=middle;whiteSpace=wrap;rounded=0;" parent="1" vertex="1">
          <mxGeometry x="888.28" y="2338" width="60" height="30" as="geometry" />
        </mxCell>
        <mxCell id="9piaaejg3JEfzZiYlQcQ-318" style="edgeStyle=orthogonalEdgeStyle;rounded=0;orthogonalLoop=1;jettySize=auto;html=1;entryX=0.5;entryY=0;entryDx=0;entryDy=0;" parent="1" source="9piaaejg3JEfzZiYlQcQ-319" target="9piaaejg3JEfzZiYlQcQ-321" edge="1">
          <mxGeometry relative="1" as="geometry" />
        </mxCell>
        <mxCell id="9piaaejg3JEfzZiYlQcQ-319" value="" style="ellipse;whiteSpace=wrap;html=1;aspect=fixed;" parent="1" vertex="1">
          <mxGeometry x="1274.8799999999999" y="2368" width="40" height="40" as="geometry" />
        </mxCell>
        <mxCell id="9piaaejg3JEfzZiYlQcQ-320" style="edgeStyle=orthogonalEdgeStyle;rounded=0;orthogonalLoop=1;jettySize=auto;html=1;entryX=0.5;entryY=0;entryDx=0;entryDy=0;" parent="1" source="9piaaejg3JEfzZiYlQcQ-321" edge="1">
          <mxGeometry relative="1" as="geometry">
            <mxPoint x="1294.8799999999999" y="2518" as="targetPoint" />
          </mxGeometry>
        </mxCell>
        <mxCell id="9piaaejg3JEfzZiYlQcQ-321" value="Отрыть раздел&lt;div&gt;&quot;Просмотр пользователей&quot;&lt;/div&gt;" style="rounded=1;whiteSpace=wrap;html=1;" parent="1" vertex="1">
          <mxGeometry x="1244.8799999999999" y="2438" width="100" height="50" as="geometry" />
        </mxCell>
        <mxCell id="9piaaejg3JEfzZiYlQcQ-322" style="edgeStyle=orthogonalEdgeStyle;rounded=0;orthogonalLoop=1;jettySize=auto;html=1;" parent="1" edge="1">
          <mxGeometry relative="1" as="geometry">
            <mxPoint x="1294.8799999999999" y="2568" as="sourcePoint" />
            <mxPoint x="1294.8799999999999" y="2598" as="targetPoint" />
          </mxGeometry>
        </mxCell>
        <mxCell id="9piaaejg3JEfzZiYlQcQ-323" style="edgeStyle=orthogonalEdgeStyle;rounded=0;orthogonalLoop=1;jettySize=auto;html=1;entryX=0.5;entryY=0;entryDx=0;entryDy=0;" parent="1" source="9piaaejg3JEfzZiYlQcQ-325" target="9piaaejg3JEfzZiYlQcQ-327" edge="1">
          <mxGeometry relative="1" as="geometry" />
        </mxCell>
        <mxCell id="9piaaejg3JEfzZiYlQcQ-324" style="edgeStyle=orthogonalEdgeStyle;rounded=0;orthogonalLoop=1;jettySize=auto;html=1;entryX=0.5;entryY=0;entryDx=0;entryDy=0;" parent="1" source="9piaaejg3JEfzZiYlQcQ-325" edge="1">
          <mxGeometry relative="1" as="geometry">
            <mxPoint x="1294.8799999999999" y="2858" as="targetPoint" />
          </mxGeometry>
        </mxCell>
        <mxCell id="9piaaejg3JEfzZiYlQcQ-325" value="Данные&amp;nbsp;&lt;div&gt;корректны?&lt;/div&gt;" style="rhombus;whiteSpace=wrap;html=1;" parent="1" vertex="1">
          <mxGeometry x="1236.6" y="2758" width="116.56" height="70" as="geometry" />
        </mxCell>
        <mxCell id="9piaaejg3JEfzZiYlQcQ-326" style="edgeStyle=orthogonalEdgeStyle;rounded=0;orthogonalLoop=1;jettySize=auto;html=1;" parent="1" source="9piaaejg3JEfzZiYlQcQ-327" edge="1">
          <mxGeometry relative="1" as="geometry">
            <mxPoint x="1294.8799999999999" y="2508" as="targetPoint" />
            <Array as="points">
              <mxPoint x="1422.8799999999999" y="2968" />
              <mxPoint x="1504.8799999999999" y="2968" />
              <mxPoint x="1504.8799999999999" y="2508" />
            </Array>
          </mxGeometry>
        </mxCell>
        <mxCell id="9piaaejg3JEfzZiYlQcQ-327" value="Вывод окна&lt;br&gt;&quot;Данные некорректны&quot;" style="shape=parallelogram;perimeter=parallelogramPerimeter;whiteSpace=wrap;html=1;fixedSize=1;" parent="1" vertex="1">
          <mxGeometry x="1363.1599999999999" y="2858" width="120" height="50" as="geometry" />
        </mxCell>
        <mxCell id="9piaaejg3JEfzZiYlQcQ-328" style="edgeStyle=orthogonalEdgeStyle;rounded=0;orthogonalLoop=1;jettySize=auto;html=1;entryX=0.5;entryY=0;entryDx=0;entryDy=0;" parent="1" source="9piaaejg3JEfzZiYlQcQ-329" target="9piaaejg3JEfzZiYlQcQ-331" edge="1">
          <mxGeometry relative="1" as="geometry" />
        </mxCell>
        <mxCell id="9piaaejg3JEfzZiYlQcQ-329" value="Сохранение данных о пользователе в БД" style="rounded=1;whiteSpace=wrap;html=1;" parent="1" vertex="1">
          <mxGeometry x="1246.6" y="2858" width="100" height="50" as="geometry" />
        </mxCell>
        <mxCell id="9piaaejg3JEfzZiYlQcQ-330" style="edgeStyle=orthogonalEdgeStyle;rounded=0;orthogonalLoop=1;jettySize=auto;html=1;entryX=0.5;entryY=0;entryDx=0;entryDy=0;" parent="1" source="9piaaejg3JEfzZiYlQcQ-331" target="9piaaejg3JEfzZiYlQcQ-332" edge="1">
          <mxGeometry relative="1" as="geometry" />
        </mxCell>
        <mxCell id="9piaaejg3JEfzZiYlQcQ-331" value="Обновление каталога" style="rounded=1;whiteSpace=wrap;html=1;" parent="1" vertex="1">
          <mxGeometry x="1246.6" y="2943.5" width="100" height="50" as="geometry" />
        </mxCell>
        <mxCell id="9piaaejg3JEfzZiYlQcQ-332" value="" style="ellipse;whiteSpace=wrap;html=1;aspect=fixed;" parent="1" vertex="1">
          <mxGeometry x="1276.6" y="3033.5" width="40" height="40" as="geometry" />
        </mxCell>
        <mxCell id="9piaaejg3JEfzZiYlQcQ-333" value="Начало" style="text;html=1;align=center;verticalAlign=middle;whiteSpace=wrap;rounded=0;" parent="1" vertex="1">
          <mxGeometry x="1314.8799999999999" y="2398" width="60" height="30" as="geometry" />
        </mxCell>
        <mxCell id="9piaaejg3JEfzZiYlQcQ-334" value="Конец" style="text;html=1;align=center;verticalAlign=middle;whiteSpace=wrap;rounded=0;" parent="1" vertex="1">
          <mxGeometry x="1314.8799999999999" y="3013.5" width="60" height="30" as="geometry" />
        </mxCell>
        <mxCell id="9piaaejg3JEfzZiYlQcQ-335" value="Нет" style="text;html=1;align=center;verticalAlign=middle;whiteSpace=wrap;rounded=0;" parent="1" vertex="1">
          <mxGeometry x="1343.1599999999999" y="2768" width="60" height="30" as="geometry" />
        </mxCell>
        <mxCell id="9piaaejg3JEfzZiYlQcQ-336" value="Да" style="text;html=1;align=center;verticalAlign=middle;whiteSpace=wrap;rounded=0;" parent="1" vertex="1">
          <mxGeometry x="1291.4399999999998" y="2818" width="60" height="30" as="geometry" />
        </mxCell>
        <mxCell id="9piaaejg3JEfzZiYlQcQ-337" value="Выбрать данные о поставщике" style="rounded=1;whiteSpace=wrap;html=1;" parent="1" vertex="1">
          <mxGeometry x="1244.8799999999999" y="2518" width="100" height="50" as="geometry" />
        </mxCell>
        <mxCell id="9piaaejg3JEfzZiYlQcQ-338" style="edgeStyle=orthogonalEdgeStyle;rounded=0;orthogonalLoop=1;jettySize=auto;html=1;entryX=0.5;entryY=0;entryDx=0;entryDy=0;" parent="1" source="9piaaejg3JEfzZiYlQcQ-339" target="9piaaejg3JEfzZiYlQcQ-341" edge="1">
          <mxGeometry relative="1" as="geometry" />
        </mxCell>
        <mxCell id="9piaaejg3JEfzZiYlQcQ-339" value="Нажать на кнопку&lt;div&gt;&quot;Редактировать&quot;&lt;/div&gt;" style="rounded=1;whiteSpace=wrap;html=1;" parent="1" vertex="1">
          <mxGeometry x="1244.8799999999999" y="2598" width="100" height="50" as="geometry" />
        </mxCell>
        <mxCell id="9piaaejg3JEfzZiYlQcQ-340" style="edgeStyle=orthogonalEdgeStyle;rounded=0;orthogonalLoop=1;jettySize=auto;html=1;entryX=0.5;entryY=0;entryDx=0;entryDy=0;" parent="1" source="9piaaejg3JEfzZiYlQcQ-341" target="9piaaejg3JEfzZiYlQcQ-325" edge="1">
          <mxGeometry relative="1" as="geometry" />
        </mxCell>
        <mxCell id="9piaaejg3JEfzZiYlQcQ-341" value="Ввести новые данные о пользователе" style="rounded=1;whiteSpace=wrap;html=1;" parent="1" vertex="1">
          <mxGeometry x="1244.8799999999999" y="2678" width="100" height="50" as="geometry" />
        </mxCell>
        <mxCell id="9piaaejg3JEfzZiYlQcQ-342" value="&lt;font style=&quot;font-size: 18px;&quot;&gt;Редактировать пользователя&lt;/font&gt;" style="text;html=1;align=center;verticalAlign=middle;whiteSpace=wrap;rounded=0;" parent="1" vertex="1">
          <mxGeometry x="1270" y="2340" width="60" height="30" as="geometry" />
        </mxCell>
        <mxCell id="9piaaejg3JEfzZiYlQcQ-365" style="edgeStyle=orthogonalEdgeStyle;rounded=0;orthogonalLoop=1;jettySize=auto;html=1;entryX=0.5;entryY=0;entryDx=0;entryDy=0;" parent="1" source="9piaaejg3JEfzZiYlQcQ-366" target="9piaaejg3JEfzZiYlQcQ-368" edge="1">
          <mxGeometry relative="1" as="geometry" />
        </mxCell>
        <mxCell id="9piaaejg3JEfzZiYlQcQ-366" value="" style="ellipse;whiteSpace=wrap;html=1;aspect=fixed;" parent="1" vertex="1">
          <mxGeometry x="1695.72" y="2373.5" width="40" height="40" as="geometry" />
        </mxCell>
        <mxCell id="9piaaejg3JEfzZiYlQcQ-367" style="edgeStyle=orthogonalEdgeStyle;rounded=0;orthogonalLoop=1;jettySize=auto;html=1;entryX=0.5;entryY=0;entryDx=0;entryDy=0;" parent="1" source="9piaaejg3JEfzZiYlQcQ-368" edge="1">
          <mxGeometry relative="1" as="geometry">
            <mxPoint x="1715.72" y="2523.5" as="targetPoint" />
          </mxGeometry>
        </mxCell>
        <mxCell id="9piaaejg3JEfzZiYlQcQ-368" value="Отрыть раздел&lt;div&gt;&quot;Просмотр пользователей&quot;&lt;/div&gt;" style="rounded=1;whiteSpace=wrap;html=1;" parent="1" vertex="1">
          <mxGeometry x="1665.72" y="2443.5" width="100" height="50" as="geometry" />
        </mxCell>
        <mxCell id="9piaaejg3JEfzZiYlQcQ-369" style="edgeStyle=orthogonalEdgeStyle;rounded=0;orthogonalLoop=1;jettySize=auto;html=1;" parent="1" edge="1">
          <mxGeometry relative="1" as="geometry">
            <mxPoint x="1715.72" y="2573.5" as="sourcePoint" />
            <mxPoint x="1715.72" y="2603.5" as="targetPoint" />
          </mxGeometry>
        </mxCell>
        <mxCell id="9piaaejg3JEfzZiYlQcQ-370" style="edgeStyle=orthogonalEdgeStyle;rounded=0;orthogonalLoop=1;jettySize=auto;html=1;entryX=0.5;entryY=0;entryDx=0;entryDy=0;" parent="1" source="9piaaejg3JEfzZiYlQcQ-371" target="9piaaejg3JEfzZiYlQcQ-372" edge="1">
          <mxGeometry relative="1" as="geometry" />
        </mxCell>
        <mxCell id="9piaaejg3JEfzZiYlQcQ-371" value="Обновление списка" style="rounded=1;whiteSpace=wrap;html=1;" parent="1" vertex="1">
          <mxGeometry x="1665.72" y="2943.5" width="100" height="50" as="geometry" />
        </mxCell>
        <mxCell id="9piaaejg3JEfzZiYlQcQ-372" value="" style="ellipse;whiteSpace=wrap;html=1;aspect=fixed;" parent="1" vertex="1">
          <mxGeometry x="1695.72" y="3033.5" width="40" height="40" as="geometry" />
        </mxCell>
        <mxCell id="9piaaejg3JEfzZiYlQcQ-373" value="Начало" style="text;html=1;align=center;verticalAlign=middle;whiteSpace=wrap;rounded=0;" parent="1" vertex="1">
          <mxGeometry x="1735.72" y="2403.5" width="60" height="30" as="geometry" />
        </mxCell>
        <mxCell id="9piaaejg3JEfzZiYlQcQ-374" value="Конец" style="text;html=1;align=center;verticalAlign=middle;whiteSpace=wrap;rounded=0;" parent="1" vertex="1">
          <mxGeometry x="1734" y="3013.5" width="60" height="30" as="geometry" />
        </mxCell>
        <mxCell id="9piaaejg3JEfzZiYlQcQ-375" value="Нет" style="text;html=1;align=center;verticalAlign=middle;whiteSpace=wrap;rounded=0;" parent="1" vertex="1">
          <mxGeometry x="1774.0000000000002" y="2773.5" width="60" height="30" as="geometry" />
        </mxCell>
        <mxCell id="9piaaejg3JEfzZiYlQcQ-376" value="Да" style="text;html=1;align=center;verticalAlign=middle;whiteSpace=wrap;rounded=0;" parent="1" vertex="1">
          <mxGeometry x="1705.72" y="2823.5" width="60" height="30" as="geometry" />
        </mxCell>
        <mxCell id="9piaaejg3JEfzZiYlQcQ-377" value="Выбрать данные о пользователе" style="rounded=1;whiteSpace=wrap;html=1;" parent="1" vertex="1">
          <mxGeometry x="1665.72" y="2523.5" width="100" height="50" as="geometry" />
        </mxCell>
        <mxCell id="9piaaejg3JEfzZiYlQcQ-378" style="edgeStyle=orthogonalEdgeStyle;rounded=0;orthogonalLoop=1;jettySize=auto;html=1;entryX=0.5;entryY=0;entryDx=0;entryDy=0;" parent="1" source="9piaaejg3JEfzZiYlQcQ-379" edge="1">
          <mxGeometry relative="1" as="geometry">
            <mxPoint x="1715.72" y="2683.5" as="targetPoint" />
          </mxGeometry>
        </mxCell>
        <mxCell id="9piaaejg3JEfzZiYlQcQ-379" value="Нажать на кнопку&lt;div&gt;&quot;Удалить&quot;&lt;/div&gt;" style="rounded=1;whiteSpace=wrap;html=1;" parent="1" vertex="1">
          <mxGeometry x="1665.72" y="2603.5" width="100" height="50" as="geometry" />
        </mxCell>
        <mxCell id="9piaaejg3JEfzZiYlQcQ-380" style="edgeStyle=orthogonalEdgeStyle;rounded=0;orthogonalLoop=1;jettySize=auto;html=1;entryX=0.5;entryY=0;entryDx=0;entryDy=0;" parent="1" source="9piaaejg3JEfzZiYlQcQ-381" target="9piaaejg3JEfzZiYlQcQ-371" edge="1">
          <mxGeometry relative="1" as="geometry" />
        </mxCell>
        <mxCell id="9piaaejg3JEfzZiYlQcQ-381" value="Удаление пользователя из БД" style="rounded=1;whiteSpace=wrap;html=1;" parent="1" vertex="1">
          <mxGeometry x="1665.72" y="2863.5" width="100" height="50" as="geometry" />
        </mxCell>
        <mxCell id="9piaaejg3JEfzZiYlQcQ-382" style="edgeStyle=orthogonalEdgeStyle;rounded=0;orthogonalLoop=1;jettySize=auto;html=1;entryX=0.5;entryY=0;entryDx=0;entryDy=0;" parent="1" source="9piaaejg3JEfzZiYlQcQ-383" target="9piaaejg3JEfzZiYlQcQ-386" edge="1">
          <mxGeometry relative="1" as="geometry" />
        </mxCell>
        <mxCell id="9piaaejg3JEfzZiYlQcQ-383" value="Вывод окна&lt;br&gt;&quot;Удалить&amp;nbsp;&lt;div&gt;пользователя?&quot;&lt;/div&gt;" style="shape=parallelogram;perimeter=parallelogramPerimeter;whiteSpace=wrap;html=1;fixedSize=1;" parent="1" vertex="1">
          <mxGeometry x="1655.72" y="2683.5" width="120" height="50" as="geometry" />
        </mxCell>
        <mxCell id="9piaaejg3JEfzZiYlQcQ-384" style="edgeStyle=orthogonalEdgeStyle;rounded=0;orthogonalLoop=1;jettySize=auto;html=1;entryX=0.5;entryY=0;entryDx=0;entryDy=0;" parent="1" source="9piaaejg3JEfzZiYlQcQ-386" target="9piaaejg3JEfzZiYlQcQ-381" edge="1">
          <mxGeometry relative="1" as="geometry" />
        </mxCell>
        <mxCell id="9piaaejg3JEfzZiYlQcQ-385" style="edgeStyle=orthogonalEdgeStyle;rounded=0;orthogonalLoop=1;jettySize=auto;html=1;" parent="1" source="9piaaejg3JEfzZiYlQcQ-386" edge="1">
          <mxGeometry relative="1" as="geometry">
            <mxPoint x="1715.72" y="2513.5" as="targetPoint" />
            <Array as="points">
              <mxPoint x="1866.72" y="2798.5" />
            </Array>
          </mxGeometry>
        </mxCell>
        <mxCell id="9piaaejg3JEfzZiYlQcQ-386" value="&lt;div&gt;&lt;br&gt;&lt;/div&gt;Вы уверены что хотите?" style="rhombus;whiteSpace=wrap;html=1;" parent="1" vertex="1">
          <mxGeometry x="1657.44" y="2763.5" width="116.56" height="70" as="geometry" />
        </mxCell>
        <mxCell id="9piaaejg3JEfzZiYlQcQ-387" value="&lt;font style=&quot;font-size: 18px;&quot;&gt;Удалить пользователя&lt;/font&gt;" style="text;html=1;align=center;verticalAlign=middle;whiteSpace=wrap;rounded=0;" parent="1" vertex="1">
          <mxGeometry x="1686.75" y="2340" width="60" height="30" as="geometry" />
        </mxCell>
        <mxCell id="9piaaejg3JEfzZiYlQcQ-388" style="edgeStyle=orthogonalEdgeStyle;rounded=0;orthogonalLoop=1;jettySize=auto;html=1;entryX=0.5;entryY=0;entryDx=0;entryDy=0;" parent="1" source="9piaaejg3JEfzZiYlQcQ-389" target="9piaaejg3JEfzZiYlQcQ-391" edge="1">
          <mxGeometry relative="1" as="geometry" />
        </mxCell>
        <mxCell id="9piaaejg3JEfzZiYlQcQ-389" value="" style="ellipse;whiteSpace=wrap;html=1;aspect=fixed;" parent="1" vertex="1">
          <mxGeometry x="58.290000000000006" y="902.25" width="40" height="40" as="geometry" />
        </mxCell>
        <mxCell id="9piaaejg3JEfzZiYlQcQ-390" style="edgeStyle=orthogonalEdgeStyle;rounded=0;orthogonalLoop=1;jettySize=auto;html=1;entryX=0.5;entryY=0;entryDx=0;entryDy=0;" parent="1" source="9piaaejg3JEfzZiYlQcQ-391" edge="1">
          <mxGeometry relative="1" as="geometry">
            <mxPoint x="78.29000000000002" y="1052.25" as="targetPoint" />
          </mxGeometry>
        </mxCell>
        <mxCell id="9piaaejg3JEfzZiYlQcQ-391" value="Отрыть раздел&lt;div&gt;&quot;Просмотр заказов&quot;&lt;/div&gt;" style="rounded=1;whiteSpace=wrap;html=1;" parent="1" vertex="1">
          <mxGeometry x="28.290000000000006" y="972.25" width="100" height="50" as="geometry" />
        </mxCell>
        <mxCell id="9piaaejg3JEfzZiYlQcQ-392" style="edgeStyle=orthogonalEdgeStyle;rounded=0;orthogonalLoop=1;jettySize=auto;html=1;" parent="1" edge="1">
          <mxGeometry relative="1" as="geometry">
            <mxPoint x="78.29000000000002" y="1102.25" as="sourcePoint" />
            <mxPoint x="78.29000000000002" y="1132.25" as="targetPoint" />
          </mxGeometry>
        </mxCell>
        <mxCell id="9piaaejg3JEfzZiYlQcQ-393" style="edgeStyle=orthogonalEdgeStyle;rounded=0;orthogonalLoop=1;jettySize=auto;html=1;entryX=0.5;entryY=0;entryDx=0;entryDy=0;" parent="1" source="9piaaejg3JEfzZiYlQcQ-395" target="9piaaejg3JEfzZiYlQcQ-397" edge="1">
          <mxGeometry relative="1" as="geometry" />
        </mxCell>
        <mxCell id="9piaaejg3JEfzZiYlQcQ-394" style="edgeStyle=orthogonalEdgeStyle;rounded=0;orthogonalLoop=1;jettySize=auto;html=1;entryX=0.5;entryY=0;entryDx=0;entryDy=0;" parent="1" source="9piaaejg3JEfzZiYlQcQ-395" edge="1">
          <mxGeometry relative="1" as="geometry">
            <mxPoint x="78.29000000000002" y="1392.25" as="targetPoint" />
          </mxGeometry>
        </mxCell>
        <mxCell id="9piaaejg3JEfzZiYlQcQ-395" value="Данные&amp;nbsp;&lt;div&gt;корректны?&lt;/div&gt;" style="rhombus;whiteSpace=wrap;html=1;" parent="1" vertex="1">
          <mxGeometry x="20.010000000000005" y="1292.25" width="116.56" height="70" as="geometry" />
        </mxCell>
        <mxCell id="9piaaejg3JEfzZiYlQcQ-396" style="edgeStyle=orthogonalEdgeStyle;rounded=0;orthogonalLoop=1;jettySize=auto;html=1;" parent="1" source="9piaaejg3JEfzZiYlQcQ-397" edge="1">
          <mxGeometry relative="1" as="geometry">
            <mxPoint x="78.29000000000002" y="1042.25" as="targetPoint" />
            <Array as="points">
              <mxPoint x="206.29" y="1502.25" />
              <mxPoint x="288.29" y="1502.25" />
              <mxPoint x="288.29" y="1042.25" />
            </Array>
          </mxGeometry>
        </mxCell>
        <mxCell id="9piaaejg3JEfzZiYlQcQ-397" value="Вывод окна&lt;br&gt;&quot;Данные некорректны&quot;" style="shape=parallelogram;perimeter=parallelogramPerimeter;whiteSpace=wrap;html=1;fixedSize=1;" parent="1" vertex="1">
          <mxGeometry x="146.57000000000002" y="1392.25" width="120" height="50" as="geometry" />
        </mxCell>
        <mxCell id="9piaaejg3JEfzZiYlQcQ-398" style="edgeStyle=orthogonalEdgeStyle;rounded=0;orthogonalLoop=1;jettySize=auto;html=1;entryX=0.5;entryY=0;entryDx=0;entryDy=0;" parent="1" source="9piaaejg3JEfzZiYlQcQ-399" target="9piaaejg3JEfzZiYlQcQ-401" edge="1">
          <mxGeometry relative="1" as="geometry" />
        </mxCell>
        <mxCell id="9piaaejg3JEfzZiYlQcQ-399" value="Сохранение данных о заказе в БД" style="rounded=1;whiteSpace=wrap;html=1;" parent="1" vertex="1">
          <mxGeometry x="30.010000000000005" y="1392.25" width="100" height="50" as="geometry" />
        </mxCell>
        <mxCell id="9piaaejg3JEfzZiYlQcQ-400" style="edgeStyle=orthogonalEdgeStyle;rounded=0;orthogonalLoop=1;jettySize=auto;html=1;entryX=0.5;entryY=0;entryDx=0;entryDy=0;" parent="1" source="9piaaejg3JEfzZiYlQcQ-401" target="9piaaejg3JEfzZiYlQcQ-402" edge="1">
          <mxGeometry relative="1" as="geometry" />
        </mxCell>
        <mxCell id="9piaaejg3JEfzZiYlQcQ-401" value="Обновление каталога" style="rounded=1;whiteSpace=wrap;html=1;" parent="1" vertex="1">
          <mxGeometry x="30.010000000000005" y="1477.75" width="100" height="50" as="geometry" />
        </mxCell>
        <mxCell id="9piaaejg3JEfzZiYlQcQ-402" value="" style="ellipse;whiteSpace=wrap;html=1;aspect=fixed;" parent="1" vertex="1">
          <mxGeometry x="60.010000000000005" y="1567.75" width="40" height="40" as="geometry" />
        </mxCell>
        <mxCell id="9piaaejg3JEfzZiYlQcQ-403" value="Начало" style="text;html=1;align=center;verticalAlign=middle;whiteSpace=wrap;rounded=0;" parent="1" vertex="1">
          <mxGeometry x="98.29000000000002" y="932.25" width="60" height="30" as="geometry" />
        </mxCell>
        <mxCell id="9piaaejg3JEfzZiYlQcQ-404" value="Конец" style="text;html=1;align=center;verticalAlign=middle;whiteSpace=wrap;rounded=0;" parent="1" vertex="1">
          <mxGeometry x="98.29000000000002" y="1547.75" width="60" height="30" as="geometry" />
        </mxCell>
        <mxCell id="9piaaejg3JEfzZiYlQcQ-405" value="Нет" style="text;html=1;align=center;verticalAlign=middle;whiteSpace=wrap;rounded=0;" parent="1" vertex="1">
          <mxGeometry x="126.57000000000002" y="1302.25" width="60" height="30" as="geometry" />
        </mxCell>
        <mxCell id="9piaaejg3JEfzZiYlQcQ-406" value="Да" style="text;html=1;align=center;verticalAlign=middle;whiteSpace=wrap;rounded=0;" parent="1" vertex="1">
          <mxGeometry x="74.85000000000002" y="1352.25" width="60" height="30" as="geometry" />
        </mxCell>
        <mxCell id="9piaaejg3JEfzZiYlQcQ-407" value="Выбрать данные о заказе" style="rounded=1;whiteSpace=wrap;html=1;" parent="1" vertex="1">
          <mxGeometry x="28.290000000000006" y="1052.25" width="100" height="50" as="geometry" />
        </mxCell>
        <mxCell id="9piaaejg3JEfzZiYlQcQ-408" style="edgeStyle=orthogonalEdgeStyle;rounded=0;orthogonalLoop=1;jettySize=auto;html=1;entryX=0.5;entryY=0;entryDx=0;entryDy=0;" parent="1" source="9piaaejg3JEfzZiYlQcQ-409" target="9piaaejg3JEfzZiYlQcQ-411" edge="1">
          <mxGeometry relative="1" as="geometry" />
        </mxCell>
        <mxCell id="9piaaejg3JEfzZiYlQcQ-409" value="Нажать на кнопку&lt;div&gt;&quot;Редактировать&quot;&lt;/div&gt;" style="rounded=1;whiteSpace=wrap;html=1;" parent="1" vertex="1">
          <mxGeometry x="28.290000000000006" y="1132.25" width="100" height="50" as="geometry" />
        </mxCell>
        <mxCell id="9piaaejg3JEfzZiYlQcQ-410" style="edgeStyle=orthogonalEdgeStyle;rounded=0;orthogonalLoop=1;jettySize=auto;html=1;entryX=0.5;entryY=0;entryDx=0;entryDy=0;" parent="1" source="9piaaejg3JEfzZiYlQcQ-411" target="9piaaejg3JEfzZiYlQcQ-395" edge="1">
          <mxGeometry relative="1" as="geometry" />
        </mxCell>
        <mxCell id="9piaaejg3JEfzZiYlQcQ-411" value="Ввести новые данные о заказе" style="rounded=1;whiteSpace=wrap;html=1;" parent="1" vertex="1">
          <mxGeometry x="28.290000000000006" y="1212.25" width="100" height="50" as="geometry" />
        </mxCell>
        <mxCell id="9piaaejg3JEfzZiYlQcQ-412" value="&lt;font style=&quot;font-size: 18px;&quot;&gt;Редактировать заказ&lt;/font&gt;" style="text;html=1;align=center;verticalAlign=middle;whiteSpace=wrap;rounded=0;" parent="1" vertex="1">
          <mxGeometry x="48.289999999999964" y="860" width="60" height="30" as="geometry" />
        </mxCell>
        <mxCell id="9piaaejg3JEfzZiYlQcQ-435" style="edgeStyle=orthogonalEdgeStyle;rounded=0;orthogonalLoop=1;jettySize=auto;html=1;entryX=0.5;entryY=0;entryDx=0;entryDy=0;" parent="1" source="9piaaejg3JEfzZiYlQcQ-436" target="9piaaejg3JEfzZiYlQcQ-438" edge="1">
          <mxGeometry relative="1" as="geometry" />
        </mxCell>
        <mxCell id="9piaaejg3JEfzZiYlQcQ-436" value="" style="ellipse;whiteSpace=wrap;html=1;aspect=fixed;" parent="1" vertex="1">
          <mxGeometry x="420" y="902.25" width="40" height="40" as="geometry" />
        </mxCell>
        <mxCell id="9piaaejg3JEfzZiYlQcQ-437" style="edgeStyle=orthogonalEdgeStyle;rounded=0;orthogonalLoop=1;jettySize=auto;html=1;entryX=0.5;entryY=0;entryDx=0;entryDy=0;" parent="1" source="9piaaejg3JEfzZiYlQcQ-438" edge="1">
          <mxGeometry relative="1" as="geometry">
            <mxPoint x="440" y="1052.25" as="targetPoint" />
          </mxGeometry>
        </mxCell>
        <mxCell id="9piaaejg3JEfzZiYlQcQ-438" value="Отрыть раздел&lt;div&gt;&quot;Просмотр заказов&quot;&lt;/div&gt;" style="rounded=1;whiteSpace=wrap;html=1;" parent="1" vertex="1">
          <mxGeometry x="390" y="972.25" width="100" height="50" as="geometry" />
        </mxCell>
        <mxCell id="9piaaejg3JEfzZiYlQcQ-439" style="edgeStyle=orthogonalEdgeStyle;rounded=0;orthogonalLoop=1;jettySize=auto;html=1;" parent="1" edge="1">
          <mxGeometry relative="1" as="geometry">
            <mxPoint x="440" y="1102.25" as="sourcePoint" />
            <mxPoint x="440" y="1132.25" as="targetPoint" />
          </mxGeometry>
        </mxCell>
        <mxCell id="9piaaejg3JEfzZiYlQcQ-440" style="edgeStyle=orthogonalEdgeStyle;rounded=0;orthogonalLoop=1;jettySize=auto;html=1;entryX=0.5;entryY=0;entryDx=0;entryDy=0;" parent="1" source="9piaaejg3JEfzZiYlQcQ-441" target="9piaaejg3JEfzZiYlQcQ-442" edge="1">
          <mxGeometry relative="1" as="geometry" />
        </mxCell>
        <mxCell id="9piaaejg3JEfzZiYlQcQ-441" value="Обновление списка" style="rounded=1;whiteSpace=wrap;html=1;" parent="1" vertex="1">
          <mxGeometry x="390" y="1472.25" width="100" height="50" as="geometry" />
        </mxCell>
        <mxCell id="9piaaejg3JEfzZiYlQcQ-442" value="" style="ellipse;whiteSpace=wrap;html=1;aspect=fixed;" parent="1" vertex="1">
          <mxGeometry x="420" y="1562.25" width="40" height="40" as="geometry" />
        </mxCell>
        <mxCell id="9piaaejg3JEfzZiYlQcQ-443" value="Начало" style="text;html=1;align=center;verticalAlign=middle;whiteSpace=wrap;rounded=0;" parent="1" vertex="1">
          <mxGeometry x="460" y="932.25" width="60" height="30" as="geometry" />
        </mxCell>
        <mxCell id="9piaaejg3JEfzZiYlQcQ-444" value="Конец" style="text;html=1;align=center;verticalAlign=middle;whiteSpace=wrap;rounded=0;" parent="1" vertex="1">
          <mxGeometry x="458.28" y="1542.25" width="60" height="30" as="geometry" />
        </mxCell>
        <mxCell id="9piaaejg3JEfzZiYlQcQ-445" value="Нет" style="text;html=1;align=center;verticalAlign=middle;whiteSpace=wrap;rounded=0;" parent="1" vertex="1">
          <mxGeometry x="498.28" y="1302.25" width="60" height="30" as="geometry" />
        </mxCell>
        <mxCell id="9piaaejg3JEfzZiYlQcQ-446" value="Да" style="text;html=1;align=center;verticalAlign=middle;whiteSpace=wrap;rounded=0;" parent="1" vertex="1">
          <mxGeometry x="430" y="1352.25" width="60" height="30" as="geometry" />
        </mxCell>
        <mxCell id="9piaaejg3JEfzZiYlQcQ-447" value="Выбрать данные о заказе" style="rounded=1;whiteSpace=wrap;html=1;" parent="1" vertex="1">
          <mxGeometry x="390" y="1052.25" width="100" height="50" as="geometry" />
        </mxCell>
        <mxCell id="9piaaejg3JEfzZiYlQcQ-448" style="edgeStyle=orthogonalEdgeStyle;rounded=0;orthogonalLoop=1;jettySize=auto;html=1;entryX=0.5;entryY=0;entryDx=0;entryDy=0;" parent="1" source="9piaaejg3JEfzZiYlQcQ-449" edge="1">
          <mxGeometry relative="1" as="geometry">
            <mxPoint x="440" y="1212.25" as="targetPoint" />
          </mxGeometry>
        </mxCell>
        <mxCell id="9piaaejg3JEfzZiYlQcQ-449" value="Нажать на кнопку&lt;div&gt;&quot;Удалить&quot;&lt;/div&gt;" style="rounded=1;whiteSpace=wrap;html=1;" parent="1" vertex="1">
          <mxGeometry x="390" y="1132.25" width="100" height="50" as="geometry" />
        </mxCell>
        <mxCell id="9piaaejg3JEfzZiYlQcQ-450" style="edgeStyle=orthogonalEdgeStyle;rounded=0;orthogonalLoop=1;jettySize=auto;html=1;entryX=0.5;entryY=0;entryDx=0;entryDy=0;" parent="1" source="9piaaejg3JEfzZiYlQcQ-451" target="9piaaejg3JEfzZiYlQcQ-441" edge="1">
          <mxGeometry relative="1" as="geometry" />
        </mxCell>
        <mxCell id="9piaaejg3JEfzZiYlQcQ-451" value="Удаление заказа из БД" style="rounded=1;whiteSpace=wrap;html=1;" parent="1" vertex="1">
          <mxGeometry x="390" y="1392.25" width="100" height="50" as="geometry" />
        </mxCell>
        <mxCell id="9piaaejg3JEfzZiYlQcQ-452" style="edgeStyle=orthogonalEdgeStyle;rounded=0;orthogonalLoop=1;jettySize=auto;html=1;entryX=0.5;entryY=0;entryDx=0;entryDy=0;" parent="1" source="9piaaejg3JEfzZiYlQcQ-453" target="9piaaejg3JEfzZiYlQcQ-456" edge="1">
          <mxGeometry relative="1" as="geometry" />
        </mxCell>
        <mxCell id="9piaaejg3JEfzZiYlQcQ-453" value="Вывод окна&lt;br&gt;&quot;Удалить&amp;nbsp;&lt;div&gt;заказ?&quot;&lt;/div&gt;" style="shape=parallelogram;perimeter=parallelogramPerimeter;whiteSpace=wrap;html=1;fixedSize=1;" parent="1" vertex="1">
          <mxGeometry x="380" y="1212.25" width="120" height="50" as="geometry" />
        </mxCell>
        <mxCell id="9piaaejg3JEfzZiYlQcQ-454" style="edgeStyle=orthogonalEdgeStyle;rounded=0;orthogonalLoop=1;jettySize=auto;html=1;entryX=0.5;entryY=0;entryDx=0;entryDy=0;" parent="1" source="9piaaejg3JEfzZiYlQcQ-456" target="9piaaejg3JEfzZiYlQcQ-451" edge="1">
          <mxGeometry relative="1" as="geometry" />
        </mxCell>
        <mxCell id="9piaaejg3JEfzZiYlQcQ-455" style="edgeStyle=orthogonalEdgeStyle;rounded=0;orthogonalLoop=1;jettySize=auto;html=1;" parent="1" source="9piaaejg3JEfzZiYlQcQ-456" edge="1">
          <mxGeometry relative="1" as="geometry">
            <mxPoint x="440" y="1042.25" as="targetPoint" />
            <Array as="points">
              <mxPoint x="591" y="1327.25" />
            </Array>
          </mxGeometry>
        </mxCell>
        <mxCell id="9piaaejg3JEfzZiYlQcQ-456" value="&lt;div&gt;&lt;br&gt;&lt;/div&gt;Вы уверены что хотите?" style="rhombus;whiteSpace=wrap;html=1;" parent="1" vertex="1">
          <mxGeometry x="381.72" y="1292.25" width="116.56" height="70" as="geometry" />
        </mxCell>
        <mxCell id="9piaaejg3JEfzZiYlQcQ-457" value="&lt;span style=&quot;font-size: 18px;&quot;&gt;Удалить&amp;nbsp;&lt;/span&gt;&lt;div&gt;&lt;span style=&quot;font-size: 18px;&quot;&gt;заказ&lt;/span&gt;&lt;/div&gt;" style="text;html=1;align=center;verticalAlign=middle;whiteSpace=wrap;rounded=0;" parent="1" vertex="1">
          <mxGeometry x="410" y="860" width="60" height="30" as="geometry" />
        </mxCell>
        <mxCell id="9piaaejg3JEfzZiYlQcQ-458" style="edgeStyle=orthogonalEdgeStyle;rounded=0;orthogonalLoop=1;jettySize=auto;html=1;entryX=0.5;entryY=0;entryDx=0;entryDy=0;" parent="1" source="9piaaejg3JEfzZiYlQcQ-459" target="9piaaejg3JEfzZiYlQcQ-461" edge="1">
          <mxGeometry relative="1" as="geometry" />
        </mxCell>
        <mxCell id="9piaaejg3JEfzZiYlQcQ-459" value="" style="ellipse;whiteSpace=wrap;html=1;aspect=fixed;" parent="1" vertex="1">
          <mxGeometry x="58.28999999999998" y="1654.5" width="40" height="40" as="geometry" />
        </mxCell>
        <mxCell id="9piaaejg3JEfzZiYlQcQ-460" style="edgeStyle=orthogonalEdgeStyle;rounded=0;orthogonalLoop=1;jettySize=auto;html=1;entryX=0.5;entryY=0;entryDx=0;entryDy=0;" parent="1" source="9piaaejg3JEfzZiYlQcQ-461" edge="1">
          <mxGeometry relative="1" as="geometry">
            <mxPoint x="78.28999999999999" y="1804.5" as="targetPoint" />
          </mxGeometry>
        </mxCell>
        <mxCell id="9piaaejg3JEfzZiYlQcQ-461" value="Отрыть раздел&lt;div&gt;&quot;Создать заказ&quot;&lt;/div&gt;" style="rounded=1;whiteSpace=wrap;html=1;" parent="1" vertex="1">
          <mxGeometry x="28.289999999999978" y="1724.5" width="100" height="50" as="geometry" />
        </mxCell>
        <mxCell id="9piaaejg3JEfzZiYlQcQ-462" style="edgeStyle=orthogonalEdgeStyle;rounded=0;orthogonalLoop=1;jettySize=auto;html=1;" parent="1" edge="1">
          <mxGeometry relative="1" as="geometry">
            <mxPoint x="78.28999999999999" y="1854.5" as="sourcePoint" />
            <mxPoint x="78.28999999999999" y="1884.5" as="targetPoint" />
          </mxGeometry>
        </mxCell>
        <mxCell id="9piaaejg3JEfzZiYlQcQ-463" style="edgeStyle=orthogonalEdgeStyle;rounded=0;orthogonalLoop=1;jettySize=auto;html=1;entryX=0.5;entryY=0;entryDx=0;entryDy=0;" parent="1" source="9piaaejg3JEfzZiYlQcQ-464" edge="1">
          <mxGeometry relative="1" as="geometry">
            <mxPoint x="78.28999999999999" y="2080" as="targetPoint" />
          </mxGeometry>
        </mxCell>
        <mxCell id="9piaaejg3JEfzZiYlQcQ-464" value="Сохранение данных о заказе в БД" style="rounded=1;whiteSpace=wrap;html=1;" parent="1" vertex="1">
          <mxGeometry x="28.289999999999978" y="1994.5" width="100" height="50" as="geometry" />
        </mxCell>
        <mxCell id="9piaaejg3JEfzZiYlQcQ-465" value="" style="ellipse;whiteSpace=wrap;html=1;aspect=fixed;" parent="1" vertex="1">
          <mxGeometry x="58.28999999999998" y="2079.5" width="40" height="40" as="geometry" />
        </mxCell>
        <mxCell id="9piaaejg3JEfzZiYlQcQ-466" value="Начало" style="text;html=1;align=center;verticalAlign=middle;whiteSpace=wrap;rounded=0;" parent="1" vertex="1">
          <mxGeometry x="98.28999999999999" y="1684.5" width="60" height="30" as="geometry" />
        </mxCell>
        <mxCell id="9piaaejg3JEfzZiYlQcQ-467" value="Конец" style="text;html=1;align=center;verticalAlign=middle;whiteSpace=wrap;rounded=0;" parent="1" vertex="1">
          <mxGeometry x="106.57000000000002" y="2064.5" width="30" height="34.5" as="geometry" />
        </mxCell>
        <mxCell id="9piaaejg3JEfzZiYlQcQ-468" value="Вести данные о пользователе" style="rounded=1;whiteSpace=wrap;html=1;" parent="1" vertex="1">
          <mxGeometry x="28.289999999999978" y="1804.5" width="100" height="50" as="geometry" />
        </mxCell>
        <mxCell id="9piaaejg3JEfzZiYlQcQ-469" style="edgeStyle=orthogonalEdgeStyle;rounded=0;orthogonalLoop=1;jettySize=auto;html=1;" parent="1" source="9piaaejg3JEfzZiYlQcQ-470" edge="1">
          <mxGeometry relative="1" as="geometry">
            <mxPoint x="78.28999999999999" y="1874.5" as="targetPoint" />
            <Array as="points">
              <mxPoint x="208.29" y="2154.5" />
              <mxPoint x="268.28999999999996" y="2154.5" />
              <mxPoint x="268.28999999999996" y="2194.5" />
              <mxPoint x="408.28999999999996" y="2194.5" />
              <mxPoint x="408.28999999999996" y="1874.5" />
            </Array>
          </mxGeometry>
        </mxCell>
        <mxCell id="9piaaejg3JEfzZiYlQcQ-470" value="Нажать на кнопку&lt;div&gt;&quot;Добавить в заказ&quot;&lt;/div&gt;" style="rounded=1;whiteSpace=wrap;html=1;" parent="1" vertex="1">
          <mxGeometry x="158.29" y="2084.5" width="100" height="50" as="geometry" />
        </mxCell>
        <mxCell id="9piaaejg3JEfzZiYlQcQ-471" style="edgeStyle=orthogonalEdgeStyle;rounded=0;orthogonalLoop=1;jettySize=auto;html=1;entryX=0.5;entryY=0;entryDx=0;entryDy=0;" parent="1" source="9piaaejg3JEfzZiYlQcQ-473" target="9piaaejg3JEfzZiYlQcQ-470" edge="1">
          <mxGeometry relative="1" as="geometry" />
        </mxCell>
        <mxCell id="9piaaejg3JEfzZiYlQcQ-472" style="edgeStyle=orthogonalEdgeStyle;rounded=0;orthogonalLoop=1;jettySize=auto;html=1;exitX=0.5;exitY=1;exitDx=0;exitDy=0;entryX=0.5;entryY=0;entryDx=0;entryDy=0;" parent="1" source="9piaaejg3JEfzZiYlQcQ-473" target="9piaaejg3JEfzZiYlQcQ-475" edge="1">
          <mxGeometry relative="1" as="geometry">
            <Array as="points">
              <mxPoint x="208.29" y="2064.5" />
              <mxPoint x="336.28999999999996" y="2064.5" />
            </Array>
          </mxGeometry>
        </mxCell>
        <mxCell id="9piaaejg3JEfzZiYlQcQ-473" value="Выделить продукт&amp;nbsp;" style="rounded=1;whiteSpace=wrap;html=1;" parent="1" vertex="1">
          <mxGeometry x="158.29" y="1994.5" width="100" height="50" as="geometry" />
        </mxCell>
        <mxCell id="9piaaejg3JEfzZiYlQcQ-474" style="edgeStyle=orthogonalEdgeStyle;rounded=0;orthogonalLoop=1;jettySize=auto;html=1;" parent="1" edge="1">
          <mxGeometry relative="1" as="geometry">
            <mxPoint x="78.28999999999999" y="1874.5" as="targetPoint" />
            <mxPoint x="336.5899999999999" y="2134.5" as="sourcePoint" />
            <Array as="points">
              <mxPoint x="336.28999999999996" y="2154.5" />
              <mxPoint x="268.28999999999996" y="2154.5" />
              <mxPoint x="268.28999999999996" y="2194.5" />
              <mxPoint x="408.28999999999996" y="2194.5" />
              <mxPoint x="408.28999999999996" y="1874.5" />
            </Array>
          </mxGeometry>
        </mxCell>
        <mxCell id="9piaaejg3JEfzZiYlQcQ-475" value="Нажать на кнопку&lt;div&gt;&quot;Удалить из заказа&quot;&lt;/div&gt;" style="rounded=1;whiteSpace=wrap;html=1;" parent="1" vertex="1">
          <mxGeometry x="286.56999999999994" y="2084.5" width="100" height="50" as="geometry" />
        </mxCell>
        <mxCell id="9piaaejg3JEfzZiYlQcQ-476" style="edgeStyle=orthogonalEdgeStyle;rounded=0;orthogonalLoop=1;jettySize=auto;html=1;entryX=0.5;entryY=0;entryDx=0;entryDy=0;" parent="1" source="9piaaejg3JEfzZiYlQcQ-478" target="9piaaejg3JEfzZiYlQcQ-464" edge="1">
          <mxGeometry relative="1" as="geometry" />
        </mxCell>
        <mxCell id="9piaaejg3JEfzZiYlQcQ-477" style="edgeStyle=orthogonalEdgeStyle;rounded=0;orthogonalLoop=1;jettySize=auto;html=1;entryX=0.5;entryY=0;entryDx=0;entryDy=0;" parent="1" source="9piaaejg3JEfzZiYlQcQ-478" target="9piaaejg3JEfzZiYlQcQ-473" edge="1">
          <mxGeometry relative="1" as="geometry" />
        </mxCell>
        <mxCell id="9piaaejg3JEfzZiYlQcQ-478" value="Оформить заказ?" style="rhombus;whiteSpace=wrap;html=1;" parent="1" vertex="1">
          <mxGeometry x="20.00999999999999" y="1884.5" width="116.56" height="70" as="geometry" />
        </mxCell>
        <mxCell id="9piaaejg3JEfzZiYlQcQ-480" value="&lt;span style=&quot;font-size: 18px;&quot;&gt;Создать&amp;nbsp;&lt;/span&gt;&lt;div&gt;&lt;span style=&quot;font-size: 18px;&quot;&gt;заказ&lt;/span&gt;&lt;/div&gt;" style="text;html=1;align=center;verticalAlign=middle;whiteSpace=wrap;rounded=0;" parent="1" vertex="1">
          <mxGeometry x="50.01" y="1620" width="60" height="30" as="geometry" />
        </mxCell>
        <mxCell id="9piaaejg3JEfzZiYlQcQ-481" value="&lt;span style=&quot;font-size: 18px;&quot;&gt;Редактировать учетку пользователя&lt;/span&gt;" style="text;html=1;align=center;verticalAlign=middle;whiteSpace=wrap;rounded=0;" parent="1" vertex="1">
          <mxGeometry x="510" y="1610" width="60" height="30" as="geometry" />
        </mxCell>
        <mxCell id="9piaaejg3JEfzZiYlQcQ-506" style="edgeStyle=orthogonalEdgeStyle;rounded=0;orthogonalLoop=1;jettySize=auto;html=1;entryX=0.5;entryY=0;entryDx=0;entryDy=0;" parent="1" source="9piaaejg3JEfzZiYlQcQ-507" target="9piaaejg3JEfzZiYlQcQ-509" edge="1">
          <mxGeometry relative="1" as="geometry" />
        </mxCell>
        <mxCell id="9piaaejg3JEfzZiYlQcQ-507" value="" style="ellipse;whiteSpace=wrap;html=1;aspect=fixed;" parent="1" vertex="1">
          <mxGeometry x="518.28" y="1660" width="40" height="40" as="geometry" />
        </mxCell>
        <mxCell id="9piaaejg3JEfzZiYlQcQ-508" style="edgeStyle=orthogonalEdgeStyle;rounded=0;orthogonalLoop=1;jettySize=auto;html=1;entryX=0.5;entryY=0;entryDx=0;entryDy=0;" parent="1" source="9piaaejg3JEfzZiYlQcQ-509" edge="1">
          <mxGeometry relative="1" as="geometry">
            <mxPoint x="538.28" y="1810" as="targetPoint" />
          </mxGeometry>
        </mxCell>
        <mxCell id="9piaaejg3JEfzZiYlQcQ-509" value="Отрыть раздел&lt;div&gt;&quot;Редактировать учетную запись&quot;&lt;/div&gt;" style="rounded=1;whiteSpace=wrap;html=1;" parent="1" vertex="1">
          <mxGeometry x="488.28" y="1730" width="100" height="50" as="geometry" />
        </mxCell>
        <mxCell id="9piaaejg3JEfzZiYlQcQ-510" style="edgeStyle=orthogonalEdgeStyle;rounded=0;orthogonalLoop=1;jettySize=auto;html=1;" parent="1" edge="1">
          <mxGeometry relative="1" as="geometry">
            <mxPoint x="538.28" y="1860" as="sourcePoint" />
            <mxPoint x="538.28" y="1890" as="targetPoint" />
          </mxGeometry>
        </mxCell>
        <mxCell id="9piaaejg3JEfzZiYlQcQ-511" style="edgeStyle=orthogonalEdgeStyle;rounded=0;orthogonalLoop=1;jettySize=auto;html=1;entryX=0.5;entryY=0;entryDx=0;entryDy=0;" parent="1" source="9piaaejg3JEfzZiYlQcQ-513" target="9piaaejg3JEfzZiYlQcQ-515" edge="1">
          <mxGeometry relative="1" as="geometry" />
        </mxCell>
        <mxCell id="9piaaejg3JEfzZiYlQcQ-512" style="edgeStyle=orthogonalEdgeStyle;rounded=0;orthogonalLoop=1;jettySize=auto;html=1;entryX=0.5;entryY=0;entryDx=0;entryDy=0;" parent="1" source="9piaaejg3JEfzZiYlQcQ-513" edge="1">
          <mxGeometry relative="1" as="geometry">
            <mxPoint x="538.28" y="2150" as="targetPoint" />
          </mxGeometry>
        </mxCell>
        <mxCell id="9piaaejg3JEfzZiYlQcQ-513" value="Данные&amp;nbsp;&lt;div&gt;корректны?&lt;/div&gt;" style="rhombus;whiteSpace=wrap;html=1;" parent="1" vertex="1">
          <mxGeometry x="480" y="2050" width="116.56" height="70" as="geometry" />
        </mxCell>
        <mxCell id="9piaaejg3JEfzZiYlQcQ-514" style="edgeStyle=orthogonalEdgeStyle;rounded=0;orthogonalLoop=1;jettySize=auto;html=1;" parent="1" source="9piaaejg3JEfzZiYlQcQ-515" edge="1">
          <mxGeometry relative="1" as="geometry">
            <mxPoint x="538.28" y="1800" as="targetPoint" />
            <Array as="points">
              <mxPoint x="666.28" y="2260" />
              <mxPoint x="748.28" y="2260" />
              <mxPoint x="748.28" y="1800" />
            </Array>
          </mxGeometry>
        </mxCell>
        <mxCell id="9piaaejg3JEfzZiYlQcQ-515" value="Вывод окна&lt;br&gt;&quot;Данные некорректны&quot;" style="shape=parallelogram;perimeter=parallelogramPerimeter;whiteSpace=wrap;html=1;fixedSize=1;" parent="1" vertex="1">
          <mxGeometry x="606.56" y="2150" width="120" height="50" as="geometry" />
        </mxCell>
        <mxCell id="9piaaejg3JEfzZiYlQcQ-516" style="edgeStyle=orthogonalEdgeStyle;rounded=0;orthogonalLoop=1;jettySize=auto;html=1;entryX=0.5;entryY=0;entryDx=0;entryDy=0;" parent="1" source="9piaaejg3JEfzZiYlQcQ-517" target="9piaaejg3JEfzZiYlQcQ-519" edge="1">
          <mxGeometry relative="1" as="geometry" />
        </mxCell>
        <mxCell id="9piaaejg3JEfzZiYlQcQ-517" value="Сохранение данных о пользователе в БД" style="rounded=1;whiteSpace=wrap;html=1;" parent="1" vertex="1">
          <mxGeometry x="490" y="2150" width="100" height="50" as="geometry" />
        </mxCell>
        <mxCell id="9piaaejg3JEfzZiYlQcQ-518" style="edgeStyle=orthogonalEdgeStyle;rounded=0;orthogonalLoop=1;jettySize=auto;html=1;entryX=0.5;entryY=0;entryDx=0;entryDy=0;" parent="1" source="9piaaejg3JEfzZiYlQcQ-519" target="9piaaejg3JEfzZiYlQcQ-520" edge="1">
          <mxGeometry relative="1" as="geometry" />
        </mxCell>
        <mxCell id="9piaaejg3JEfzZiYlQcQ-519" value="Обновление учетной записи" style="rounded=1;whiteSpace=wrap;html=1;" parent="1" vertex="1">
          <mxGeometry x="490" y="2235.5" width="100" height="50" as="geometry" />
        </mxCell>
        <mxCell id="9piaaejg3JEfzZiYlQcQ-520" value="" style="ellipse;whiteSpace=wrap;html=1;aspect=fixed;" parent="1" vertex="1">
          <mxGeometry x="520" y="2325.5" width="40" height="40" as="geometry" />
        </mxCell>
        <mxCell id="9piaaejg3JEfzZiYlQcQ-521" value="Начало" style="text;html=1;align=center;verticalAlign=middle;whiteSpace=wrap;rounded=0;" parent="1" vertex="1">
          <mxGeometry x="558.28" y="1690" width="60" height="30" as="geometry" />
        </mxCell>
        <mxCell id="9piaaejg3JEfzZiYlQcQ-522" value="Конец" style="text;html=1;align=center;verticalAlign=middle;whiteSpace=wrap;rounded=0;" parent="1" vertex="1">
          <mxGeometry x="558.28" y="2305.5" width="60" height="30" as="geometry" />
        </mxCell>
        <mxCell id="9piaaejg3JEfzZiYlQcQ-523" value="Нет" style="text;html=1;align=center;verticalAlign=middle;whiteSpace=wrap;rounded=0;" parent="1" vertex="1">
          <mxGeometry x="586.56" y="2060" width="60" height="30" as="geometry" />
        </mxCell>
        <mxCell id="9piaaejg3JEfzZiYlQcQ-524" value="Да" style="text;html=1;align=center;verticalAlign=middle;whiteSpace=wrap;rounded=0;" parent="1" vertex="1">
          <mxGeometry x="534.8399999999999" y="2110" width="60" height="30" as="geometry" />
        </mxCell>
        <mxCell id="9piaaejg3JEfzZiYlQcQ-525" value="Выбрать данные о пользователе" style="rounded=1;whiteSpace=wrap;html=1;" parent="1" vertex="1">
          <mxGeometry x="488.28" y="1810" width="100" height="50" as="geometry" />
        </mxCell>
        <mxCell id="9piaaejg3JEfzZiYlQcQ-526" style="edgeStyle=orthogonalEdgeStyle;rounded=0;orthogonalLoop=1;jettySize=auto;html=1;entryX=0.5;entryY=0;entryDx=0;entryDy=0;" parent="1" source="9piaaejg3JEfzZiYlQcQ-527" target="9piaaejg3JEfzZiYlQcQ-529" edge="1">
          <mxGeometry relative="1" as="geometry" />
        </mxCell>
        <mxCell id="9piaaejg3JEfzZiYlQcQ-527" value="Нажать на кнопку&lt;div&gt;&quot;Редактировать&quot;&lt;/div&gt;" style="rounded=1;whiteSpace=wrap;html=1;" parent="1" vertex="1">
          <mxGeometry x="488.28" y="1890" width="100" height="50" as="geometry" />
        </mxCell>
        <mxCell id="9piaaejg3JEfzZiYlQcQ-528" style="edgeStyle=orthogonalEdgeStyle;rounded=0;orthogonalLoop=1;jettySize=auto;html=1;entryX=0.5;entryY=0;entryDx=0;entryDy=0;" parent="1" source="9piaaejg3JEfzZiYlQcQ-529" target="9piaaejg3JEfzZiYlQcQ-513" edge="1">
          <mxGeometry relative="1" as="geometry" />
        </mxCell>
        <mxCell id="9piaaejg3JEfzZiYlQcQ-529" value="Ввести новые данные о заказе" style="rounded=1;whiteSpace=wrap;html=1;" parent="1" vertex="1">
          <mxGeometry x="488.28" y="1970" width="100" height="50" as="geometry" />
        </mxCell>
      </root>
    </mxGraphModel>
  </diagram>
</mxfile>
